{
.appVersion = "3228";
.formatVersion = 3;
DisplayStrings = (
COCOCOCOSCGGCGCSSCSCS,
"NOOOOoooOOOooOOnononoonon ",
J,
K,
B,
s,
L,
"1",
z,
"ABCDEÉFGHIJKLMNOPQRSTUVWXYZabcdeéfghijklmnopqrstuvwxyzvwvwvwwvvwvwvwv


wvwvwvwvwvwvwvw",
"ÉeéÉeéÉeéÉeéÉeéÉeéÉeéÉeé
ÉeéÉeéÉeéÉeéÉeéÉeéÉeéÉeéÉeéÉeéÉeéÉeéÉeéÉeéÉeéÉeé",
S,
c,
x,
XxkaoxXOXOXxooxxxxooxox,
n,
WwowowwwwwWWWWOXOXOXOWWWWWVvovovvxoxoxkokokokokokokokokokokokokokkokokok,
o,
"9",
VWXYZ,
T,
k,
".?",
":",
"!¡",
U,
"ABCDEÉFGHIJKLMNOPQRSTUVWXYZabcdeéfghijklmnopqrstuvwxyz0123456789 .,:;…!¡?¿·•*#///backslash -–—_(){}[]‚„“”‘’«»‹›\"'̈̇̀́̋/caroncomb.alt ̧̨̦̂̌̆̊̃̄̒¨˙`´˝ˆˇ˘˚˜¯¸˛/ellipisis"
);
axes = (
{
name = Weight;
tag = wght;
}
);
customParameters = (
{
name = vendorID;
value = "    ";
},
{
name = panose;
value = (
0,
0,
0,
0,
0,
0,
0,
0,
0,
0
);
},
{
name = unicodeRanges;
value = (
0,
1,
5,
31,
33,
35
);
},
{
name = codePageRanges;
value = (
"1252"
);
},
{
name = fsType;
value = (
);
},
{
name = blueScale;
value = 0.04;
},
{
name = blueShift;
value = 7;
},
{
name = blueFuzz;
value = 1;
},
{
name = TTFBlueFuzz;
value = 1;
}
);
date = "2023-10-25 20:34:19 +0000";
familyName = Madimi;
featurePrefixes = (
{
automatic = 1;
code = "languagesystem DFLT dflt;
";
name = Languagesystems;
}
);
fontMaster = (
{
axesValues = (
92
);
guides = (
{
locked = 1;
pos = (226,-230);
},
{
locked = 1;
pos = (266,391);
}
);
iconName = Bold;
id = "2F065738-4B59-43EB-A5F2-FD5F277958EA";
metricValues = (
{
over = 12;
pos = 750;
},
{
over = 12;
pos = 700;
},
{
over = 12;
pos = 500;
},
{
over = -12;
},
{
over = -12;
pos = -250;
},
{
}
);
name = Bold;
stemValues = (
120,
144
);
userData = {
GSCornerRadius = 80;
GSOffsetHorizontal = 92;
GSOffsetKeepCompatible = 1;
GSOffsetMakeStroke = 1;
GSOffsetVertical = 0;
};
}
);
glyphs = (
{
color = 6;
glyphname = A;
lastChange = "2023-12-05 22:15:06 +0000";
layers = (
{
anchors = (
{
name = bottom;
pos = (317,0);
},
{
name = ogonek;
pos = (546,10);
},
{
name = top;
pos = (317,700);
}
);
background = {
shapes = (
{
pos = (-25,0);
ref = P;
}
);
};
hints = (
{
horizontal = 1;
place = (652,72);
type = Stem;
},
{
horizontal = 1;
place = (313,73);
type = Stem;
},
{
horizontal = 1;
place = (-24,21);
target = up;
type = BottomGhost;
},
{
place = (410,91);
type = Stem;
},
{
place = (73,90);
type = Stem;
}
);
layerId = "2F065738-4B59-43EB-A5F2-FD5F277958EA";
shapes = (
{
closed = 1;
nodes = (
(180,-11,o),
(204,9,o),
(204,51,cs),
(204,186,ls),
(204,241,o),
(232,259,o),
(306,259,cs),
(346,259,o),
(391,277,o),
(416,300,c),
(416,51,ls),
(416,11,o),
(442,-11,o),
(488,-11,cs),
(535,-11,o),
(560,10,o),
(560,51,cs),
(560,455,ls),
(560,636,o),
(484,711,o),
(306,711,cs),
(132,711,o),
(60,639,o),
(60,455,cs),
(60,55,ls),
(60,9,o),
(82,-11,o),
(132,-11,cs)
);
},
{
closed = 1;
nodes = (
(202,367,o),
(204,403,o),
(204,455,cs),
(204,556,o),
(231,590,o),
(306,590,cs),
(384,590,o),
(416,554,o),
(416,459,cs),
(416,392,o),
(398,380,o),
(306,380,cs),
(263,380,o),
(219,367,o),
(198,346,c)
);
}
);
width = 620;
}
);
note = A;
unicode = 65;
},
{
color = 6;
glyphname = B;
lastChange = "2023-12-09 13:46:03 +0000";
layers = (
{
anchors = (
{
name = bottom;
pos = (359,0);
},
{
name = center;
pos = (359,350);
},
{
name = top;
pos = (359,700);
}
);
hints = (
{
horizontal = 1;
place = (653,72);
type = Stem;
},
{
horizontal = 1;
place = (315,72);
type = Stem;
},
{
horizontal = 1;
place = (-24,72);
type = Stem;
},
{
place = (389,90);
type = Stem;
},
{
place = (51,90);
type = Stem;
}
);
layerId = "2F065738-4B59-43EB-A5F2-FD5F277958EA";
shapes = (
{
closed = 1;
nodes = (
(335,0,ls),
(500,0,o),
(580,71,o),
(580,211,cs),
(580,296,o),
(553,344,o),
(488,373,c),
(529,397,o),
(551,447,o),
(551,518,cs),
(551,641,o),
(467,711,o),
(319,711,cs),
(148,711,o),
(76,658,o),
(76,532,cs),
(76,53,ls),
(76,22,o),
(95,0,o),
(121,0,cs)
);
},
{
closed = 1;
nodes = (
(220,200,ls),
(220,300,o),
(242,326,o),
(327,326,cs),
(400,326,o),
(430,292,o),
(430,210,cs),
(430,143,o),
(403,117,o),
(325,117,cs),
(220,117,l)
);
},
{
closed = 1;
nodes = (
(219,423,o),
(220,441,o),
(220,515,cs),
(220,575,o),
(247,600,o),
(314,600,cs),
(380,600,o),
(407,574,o),
(407,509,cs),
(407,445,o),
(388,425,o),
(325,425,cs),
(272,425,o),
(230,412,o),
(213,391,c)
);
}
);
width = 622;
}
);
metricLeft = H;
note = B;
unicode = 66;
},
{
color = 6;
glyphname = C;
lastChange = "2023-12-12 20:27:03 +0000";
layers = (
{
layerId = "2F065738-4B59-43EB-A5F2-FD5F277958EA";
shapes = (
{
closed = 1;
nodes = (
(470,-11,o),
(499,6,o),
(499,57,cs),
(499,103,o),
(476,120,o),
(417,120,cs),
(255,120,o),
(207,172,o),
(207,346,cs),
(207,521,o),
(255,581,o),
(417,581,c),
(477,581,o),
(499,598,o),
(499,643,c),
(499,694,o),
(470,711,o),
(385,711,c),
(166,711,o),
(57,586,o),
(57,347,cs),
(57,108,o),
(167,-11,o),
(385,-11,cs)
);
}
);
width = 531;
}
);
metricLeft = O;
metricRight = E;
unicode = 67;
},
{
color = 6;
glyphname = D;
lastChange = "2023-12-09 11:51:13 +0000";
layers = (
{
anchors = (
{
name = bottom;
pos = (358,0);
},
{
name = center;
pos = (358,350);
},
{
name = top;
pos = (358,700);
}
);
background = {
shapes = (
{
ref = B;
}
);
};
hints = (
{
horizontal = 1;
place = (652,72);
type = Stem;
},
{
horizontal = 1;
place = (-25,73);
type = Stem;
},
{
place = (389,90);
type = Stem;
},
{
place = (51,90);
type = Stem;
}
);
layerId = "2F065738-4B59-43EB-A5F2-FD5F277958EA";
shapes = (
{
closed = 1;
nodes = (
(282,0,ls),
(485,0,o),
(584,114,o),
(584,350,cs),
(584,585,o),
(486,700,o),
(285,700,cs),
(227,700,ls),
(146,700,o),
(76,635,o),
(76,552,cs),
(76,38,ls),
(76,16,o),
(96,0,o),
(124,0,cs)
);
},
{
closed = 1;
nodes = (
(220,518,l),
(220,551,o),
(226,573,o),
(262,573,c),
(391,573,o),
(434,515,o),
(434,347,cs),
(434,181,o),
(393,127,o),
(255,127,cs),
(220,127,l)
);
}
);
width = 641;
}
);
metricLeft = H;
metricRight = O;
note = D;
unicode = 68;
},
{
color = 6;
glyphname = E;
lastChange = "2023-12-06 19:24:36 +0000";
layers = (
{
anchors = (
{
name = bottom;
pos = (320,0);
},
{
name = ogonek;
pos = (531,10);
},
{
name = top;
pos = (347,700);
},
{
name = topleft;
pos = (75,700);
}
);
background = {
shapes = (
{
ref = H;
}
);
};
hints = (
{
horizontal = 1;
place = (652,72);
type = Stem;
},
{
horizontal = 1;
place = (314,72);
type = Stem;
},
{
horizontal = 1;
place = (-25,71);
type = Stem;
},
{
place = (51,90);
type = Stem;
}
);
layerId = "2F065738-4B59-43EB-A5F2-FD5F277958EA";
shapes = (
{
closed = 1;
nodes = (
(76,22,o),
(95,0,o),
(121,0,cs),
(446,0,ls),
(497,0,o),
(516,18,o),
(516,64,cs),
(516,112,o),
(495,132,o),
(446,132,cs),
(220,132,l),
(220,198,l),
(220,273,o),
(236,291,o),
(298,291,cs),
(405,291,ls),
(441,291,o),
(464,317,o),
(464,357,cs),
(464,397,o),
(442,421,o),
(405,421,cs),
(306,421,ls),
(272,421,o),
(235,409,o),
(212,390,c),
(216,420,o),
(220,455,o),
(220,483,cs),
(220,543,o),
(247,568,o),
(314,568,cs),
(446,568,ls),
(490,568,o),
(516,592,o),
(516,633,cs),
(516,675,o),
(490,700,o),
(446,700,cs),
(321,700,ls),
(150,700,o),
(76,647,o),
(76,521,cs),
(76,53,ls)
);
}
);
width = 548;
}
);
metricLeft = H;
note = E;
unicode = 69;
},
{
color = 6;
glyphname = F;
lastChange = "2023-11-29 21:33:05 +0000";
layers = (
{
anchors = (
{
name = bottom;
pos = (316,0);
},
{
name = top;
pos = (316,700);
}
);
background = {
shapes = (
{
ref = E;
}
);
};
hints = (
{
horizontal = 1;
place = (652,72);
type = Stem;
},
{
horizontal = 1;
place = (313,72);
type = Stem;
},
{
horizontal = 1;
place = (-24,21);
target = up;
type = BottomGhost;
},
{
place = (51,89);
type = Stem;
}
);
layerId = "2F065738-4B59-43EB-A5F2-FD5F277958EA";
shapes = (
{
closed = 1;
nodes = (
(198,-11,o),
(220,10,o),
(220,54,cs),
(220,174,ls),
(220,244,o),
(241,263,o),
(317,263,cs),
(395,263,ls),
(439,263,o),
(464,286,o),
(464,327,cs),
(464,369,o),
(440,391,o),
(395,391,cs),
(325,391,ls),
(275,391,o),
(236,380,o),
(211,360,c),
(216,396,o),
(220,444,o),
(220,481,cs),
(220,559,o),
(227,568,o),
(285,568,cs),
(445,568,ls),
(487,568,o),
(515,594,o),
(515,633,cs),
(515,674,o),
(488,700,o),
(445,700,cs),
(230,700,ls),
(132,700,o),
(76,642,o),
(76,542,cs),
(76,54,ls),
(76,11,o),
(101,-11,o),
(150,-11,cs)
);
}
);
width = 533;
}
);
metricLeft = H;
note = F;
unicode = 70;
},
{
color = 6;
glyphname = G;
lastChange = "2023-12-11 13:56:58 +0000";
layers = (
{
anchors = (
{
name = bottom;
pos = (314,0);
},
{
name = top;
pos = (314,700);
}
);
background = {
shapes = (
{
pos = (-11,0);
ref = O;
}
);
};
hints = (
{
horizontal = 1;
place = (653,71);
type = Stem;
},
{
horizontal = 1;
place = (314,72);
type = Stem;
},
{
horizontal = 1;
place = (-24,72);
type = Stem;
},
{
place = (389,90);
type = Stem;
},
{
place = (51,90);
type = Stem;
}
);
layerId = "2F065738-4B59-43EB-A5F2-FD5F277958EA";
shapes = (
{
closed = 1;
nodes = (
(462,-11,o),
(542,98,o),
(542,287,cs),
(542,366,o),
(522,386,o),
(452,386,cs),
(346,386,ls),
(312,386,o),
(292,366,o),
(292,330,cs),
(292,294,o),
(311,275,o),
(346,275,cs),
(428,275,l),
(415,261,o),
(405,238,o),
(397,203,cs),
(383,145,o),
(360,121,o),
(316,121,cs),
(245,121,o),
(205,166,o),
(205,346,cs),
(205,524,o),
(239,579,o),
(326,579,cs),
(363,579,o),
(403,573,o),
(437,573,cs),
(488,573,o),
(510,593,o),
(510,632,cs),
(510,660,o),
(496,678,o),
(468,689,cs),
(434,703,o),
(385,711,o),
(334,711,cs),
(154,711,o),
(57,596,o),
(57,347,cs),
(57,89,o),
(142,-11,o),
(313,-11,cs)
);
}
);
width = 631;
}
);
metricLeft = O;
note = G;
unicode = 71;
},
{
color = 6;
glyphname = H;
lastChange = "2023-12-06 19:16:35 +0000";
layers = (
{
background = {
shapes = (
{
pos = (7,0);
ref = O;
}
);
};
hints = (
{
horizontal = 1;
place = (724,-20);
target = down;
type = TopGhost;
},
{
horizontal = 1;
place = (315,71);
type = Stem;
},
{
horizontal = 1;
place = (-24,21);
target = up;
type = BottomGhost;
},
{
place = (389,90);
type = Stem;
},
{
place = (51,90);
type = Stem;
}
);
layerId = "2F065738-4B59-43EB-A5F2-FD5F277958EA";
shapes = (
{
closed = 1;
nodes = (
(199,-11,o),
(220,10,o),
(220,56,cs),
(220,195,ls),
(220,288,o),
(247,314,o),
(333,314,cs),
(395,314,o),
(444,331,o),
(452,355,c),
(452,56,ls),
(452,10,o),
(476,-11,o),
(526,-11,cs),
(575,-11,o),
(596,10,o),
(596,56,cs),
(596,644,ls),
(596,690,o),
(572,711,o),
(523,711,cs),
(473,711,o),
(452,690,o),
(452,644,cs),
(452,442,l),
(351,442,ls),
(281,442,o),
(247,430,o),
(213,396,c),
(218,414,o),
(220,462,o),
(220,544,cs),
(220,644,ls),
(220,690,o),
(196,711,o),
(147,711,cs),
(97,711,o),
(76,690,o),
(76,644,cs),
(76,56,ls),
(76,10,o),
(100,-11,o),
(150,-11,cs)
);
}
);
width = 672;
}
);
metricRight = "=|";
note = H;
unicode = 72;
},
{
color = 6;
glyphname = I;
lastChange = "2023-12-01 17:58:57 +0000";
layers = (
{
background = {
anchors = (
{
name = bottom;
pos = (-166,0);
},
{
name = ogonek;
pos = (45,10);
},
{
name = top;
pos = (-166,700);
},
{
name = topleft;
pos = (-411,700);
}
);
shapes = (
{
closed = 1;
nodes = (
(-273,122,ls),
(-321,122,o),
(-340,105,o),
(-340,62,cs),
(-340,17,o),
(-321,0,o),
(-273,0,cs),
(-22,0,ls),
(31,0,o),
(52,17,o),
(52,62,cs),
(52,105,o),
(31,122,o),
(-22,122,cs),
(-75,122,l),
(-75,500,ls),
(-75,558,o),
(-81,571,o),
(-109,578,c),
(-22,578,ls),
(31,578,o),
(52,595,o),
(52,640,cs),
(52,683,o),
(31,700,o),
(-22,700,cs),
(-273,700,ls),
(-321,700,o),
(-340,683,o),
(-340,640,cs),
(-340,595,o),
(-321,578,o),
(-273,578,cs),
(-219,578,l),
(-219,200,ls),
(-219,142,o),
(-213,129,o),
(-185,122,c)
);
}
);
};
hints = (
{
horizontal = 1;
place = (652,72);
type = Stem;
},
{
horizontal = 1;
place = (-24,72);
type = Stem;
},
{
place = (220,90);
type = Stem;
}
);
layerId = "2F065738-4B59-43EB-A5F2-FD5F277958EA";
shapes = (
{
closed = 1;
nodes = (
(199,-11,o),
(220,10,o),
(220,56,cs),
(220,644,ls),
(220,690,o),
(196,711,o),
(147,711,cs),
(97,711,o),
(76,690,o),
(76,644,cs),
(76,56,ls),
(76,10,o),
(100,-11,o),
(150,-11,cs)
);
}
);
width = 296;
}
);
metricLeft = H;
metricRight = H;
note = I;
unicode = 73;
},
{
color = 6;
glyphname = J;
lastChange = "2023-12-09 13:41:30 +0000";
layers = (
{
layerId = "2F065738-4B59-43EB-A5F2-FD5F277958EA";
shapes = (
{
closed = 1;
nodes = (
(350,-12,o),
(433,50,o),
(433,185,cs),
(433,633,ls),
(433,685,o),
(409,711,o),
(361,711,cs),
(313,711,o),
(289,685,o),
(289,633,cs),
(289,207,ls),
(289,142,o),
(268,121,o),
(214,120,cs),
(177,120,o),
(137,127,o),
(103,127,cs),
(52,127,o),
(30,106,o),
(30,67,cs),
(30,39,o),
(44,21,o),
(72,10,cs),
(106,-4,o),
(155,-12,o),
(206,-12,cs)
);
}
);
width = 509;
}
);
metricRight = H;
unicode = 74;
},
{
color = 6;
glyphname = K;
lastChange = "2023-12-09 13:46:47 +0000";
layers = (
{
background = {
shapes = (
{
pos = (13,0);
ref = H;
}
);
};
layerId = "2F065738-4B59-43EB-A5F2-FD5F277958EA";
shapes = (
{
closed = 1;
nodes = (
(201,331,o),
(201,264,o),
(201,196,c),
(201,196,o),
(195,314,o),
(312,314,cs),
(426,314,o),
(433,250,o),
(433,58,cs),
(433,-1,o),
(471,-12,o),
(508,-12,cs),
(576,-12,o),
(576,37,o),
(576,58,cs),
(576,215,ls),
(576,286,o),
(542,345,o),
(469,377,c),
(540,410,o),
(576,464,o),
(576,539,c),
(576,641,ls),
(576,662,o),
(576,711,o),
(501,711,cs),
(464,711,o),
(434,700,o),
(434,641,cs),
(434,516,o),
(401,441,o),
(302,441,cs),
(240,441,o),
(199,404,o),
(201,399,c)
);
},
{
closed = 1;
nodes = (
(200,-12,o),
(220,18,o),
(220,66,cs),
(220,314,o),
(220,444,o),
(220,633,cs),
(220,681,o),
(200,711,o),
(148,711,cs),
(96,711,o),
(76,681,o),
(76,633,cs),
(76,66,ls),
(76,18,o),
(96,-12,o),
(148,-12,cs)
);
}
);
width = 634;
}
);
metricLeft = H;
unicode = 75;
},
{
color = 6;
glyphname = L;
lastChange = "2023-12-09 13:54:14 +0000";
layers = (
{
layerId = "2F065738-4B59-43EB-A5F2-FD5F277958EA";
shapes = (
{
closed = 1;
nodes = (
(423,0,ls),
(473,0,o),
(500,24,o),
(500,69,cs),
(500,114,o),
(472,139,o),
(423,139,cs),
(276,139,ls),
(253,139,o),
(228,127,o),
(212,108,c),
(216,129,o),
(220,167,o),
(220,189,cs),
(220,633,ls),
(220,685,o),
(196,711,o),
(148,711,cs),
(100,711,o),
(76,685,o),
(76,633,cs),
(76,78,ls),
(76,26,o),
(100,0,o),
(148,0,cs)
);
}
);
width = 520;
}
);
metricLeft = H;
unicode = 76;
},
{
color = 6;
glyphname = M;
lastChange = "2023-12-06 20:44:06 +0000";
layers = (
{
anchors = (
{
name = bottom;
pos = (440,0);
},
{
name = top;
pos = (445,700);
}
);
hints = (
{
horizontal = 1;
place = (652,72);
type = Stem;
},
{
horizontal = 1;
place = (-23,21);
target = up;
type = BottomGhost;
},
{
horizontal = 1;
place = (-24,21);
target = up;
type = BottomGhost;
},
{
place = (727,90);
type = Stem;
},
{
place = (389,90);
type = Stem;
},
{
place = (51,90);
type = Stem;
}
);
layerId = "2F065738-4B59-43EB-A5F2-FD5F277958EA";
shapes = (
{
closed = 1;
nodes = (
(184,-11,o),
(204,11,o),
(204,66,cs),
(204,480,ls),
(204,546,o),
(232,579,o),
(289,579,cs),
(347,579,o),
(374,541,o),
(374,460,cs),
(374,76,ls),
(374,22,o),
(397,-1,o),
(448,-1,cs),
(498,-1,o),
(518,21,o),
(518,76,cs),
(518,460,ls),
(518,542,o),
(545,579,o),
(603,579,cs),
(660,579,o),
(688,547,o),
(688,480,cs),
(688,66,ls),
(688,12,o),
(711,-11,o),
(762,-11,cs),
(812,-11,o),
(832,11,o),
(832,66,cs),
(832,472,ls),
(832,634,o),
(768,711,o),
(632,711,cs),
(532,711,o),
(466,670,o),
(445,595,c),
(424,669,o),
(357,711,o),
(260,711,cs),
(128,711,o),
(60,629,o),
(60,472,cs),
(60,66,ls),
(60,12,o),
(83,-11,o),
(134,-11,cs)
);
}
);
width = 892;
}
);
metricLeft = "=A";
metricRight = "=|";
note = M;
unicode = 77;
},
{
color = 6;
glyphname = N;
lastChange = "2023-12-13 19:25:04 +0000";
layers = (
{
anchors = (
{
name = bottom;
pos = (317,0);
},
{
name = top;
pos = (317,700);
}
);
hints = (
{
horizontal = 1;
place = (652,72);
type = Stem;
},
{
horizontal = 1;
place = (-23,21);
target = up;
type = BottomGhost;
},
{
horizontal = 1;
place = (-24,21);
target = up;
type = BottomGhost;
},
{
place = (389,90);
type = Stem;
},
{
place = (51,90);
type = Stem;
},
{
horizontal = 1;
place = (-24,21);
target = up;
type = BottomGhost;
},
{
horizontal = 1;
place = (-23,21);
target = up;
type = BottomGhost;
},
{
horizontal = 1;
place = (724,-72);
type = Stem;
},
{
place = (277,-90);
type = Stem;
},
{
place = (615,-90);
type = Stem;
}
);
layerId = "2F065738-4B59-43EB-A5F2-FD5F277958EA";
shapes = (
{
closed = 1;
nodes = (
(180,-11,o),
(204,15,o),
(204,67,cs),
(204,452,ls),
(204,549,o),
(224,589,o),
(320,589,cs),
(400,589,o),
(431,551,o),
(431,452,cs),
(431,67,ls),
(431,15,o),
(455,-11,o),
(503,-11,cs),
(551,-11,o),
(575,15,o),
(575,67,cs),
(575,474,ls),
(575,634,o),
(488,711,o),
(320,711,cs),
(132,711,o),
(60,632,o),
(60,474,cs),
(60,67,ls),
(60,15,o),
(84,-11,o),
(132,-11,cs)
);
}
);
width = 651;
}
);
metricLeft = A;
metricRight = H;
note = N;
unicode = 78;
},
{
color = 6;
glyphname = O;
lastChange = "2023-12-09 13:43:24 +0000";
layers = (
{
anchors = (
{
name = bottom;
pos = (329,0);
},
{
name = center;
pos = (329,350);
},
{
name = ogonek;
pos = (583,0);
},
{
name = top;
pos = (329,700);
},
{
name = topleft;
pos = (16,700);
},
{
name = topright;
pos = (642,700);
}
);
hints = (
{
horizontal = 1;
place = (652,72);
type = Stem;
},
{
horizontal = 1;
place = (-24,72);
type = Stem;
},
{
place = (389,90);
type = Stem;
},
{
place = (51,90);
type = Stem;
}
);
layerId = "2F065738-4B59-43EB-A5F2-FD5F277958EA";
shapes = (
{
closed = 1;
nodes = (
(504,-11,o),
(601,121,o),
(601,351,cs),
(601,580,o),
(504,711,o),
(329,711,cs),
(154,711,o),
(57,580,o),
(57,351,cs),
(57,121,o),
(154,-11,o),
(329,-11,cs)
);
},
{
closed = 1;
nodes = (
(250,121,o),
(201,205,o),
(201,351,cs),
(201,496,o),
(250,579,o),
(329,579,cs),
(408,579,o),
(457,496,o),
(457,351,cs),
(457,205,o),
(408,121,o),
(329,121,cs)
);
}
);
width = 658;
}
);
note = O;
unicode = 79;
},
{
color = 6;
glyphname = P;
lastChange = "2023-12-03 16:09:41 +0000";
layers = (
{
anchors = (
{
name = bottom;
pos = (340,0);
},
{
name = top;
pos = (340,700);
}
);
hints = (
{
horizontal = 1;
place = (653,71);
type = Stem;
},
{
horizontal = 1;
place = (314,72);
type = Stem;
},
{
horizontal = 1;
place = (-24,21);
target = up;
type = BottomGhost;
},
{
place = (389,90);
type = Stem;
},
{
place = (51,90);
type = Stem;
}
);
layerId = "2F065738-4B59-43EB-A5F2-FD5F277958EA";
shapes = (
{
closed = 1;
nodes = (
(197,-9,o),
(220,10,o),
(220,47,cs),
(220,156,ls),
(220,241,o),
(227,261,o),
(341,261,cs),
(475,261,o),
(553,338,o),
(553,479,cs),
(553,641,o),
(470,711,o),
(333,711,cs),
(148,711,o),
(76,635,o),
(76,486,cs),
(76,47,ls),
(76,12,o),
(104,-9,o),
(150,-9,cs)
);
},
{
closed = 1;
nodes = (
(218,387,o),
(220,433,o),
(220,483,cs),
(220,568,o),
(248,597,o),
(327,597,cs),
(390,597,o),
(427,584,o),
(427,479,cs),
(427,399,o),
(399,382,o),
(313,382,cs),
(250,382,o),
(234,368,o),
(211,348,c)
);
}
);
width = 589;
}
);
metricLeft = H;
note = P;
unicode = 80;
},
{
color = 6;
glyphname = Q;
lastChange = "2023-12-03 16:23:42 +0000";
layers = (
{
anchors = (
{
name = bottom;
pos = (265,0);
},
{
name = top;
pos = (329,712);
}
);
hints = (
{
horizontal = 1;
place = (652,72);
type = Stem;
},
{
horizontal = 1;
place = (-24,72);
type = Stem;
},
{
horizontal = 1;
place = (-20,21);
target = up;
type = BottomGhost;
},
{
place = (389,90);
type = Stem;
},
{
place = (274,92);
type = Stem;
},
{
place = (51,90);
type = Stem;
}
);
layerId = "2F065738-4B59-43EB-A5F2-FD5F277958EA";
shapes = (
{
closed = 1;
nodes = (
(494,-140,o),
(509,-131,o),
(524,-113,cs),
(536,-98,o),
(542,-84,o),
(542,-71,cs),
(542,-54,o),
(532,-37,o),
(511,-21,cs),
(353,103,ls),
(339,114,o),
(325,119,o),
(314,119,cs),
(298,119,o),
(281,109,o),
(267,92,cs),
(253,75,o),
(246,56,o),
(246,44,cs),
(246,32,o),
(254,18,o),
(272,4,cs),
(431,-120,ls),
(450,-135,o),
(463,-140,o),
(476,-140,cs)
);
},
{
ref = O;
}
);
width = 658;
}
);
note = Q;
unicode = 81;
},
{
color = 6;
glyphname = R;
lastChange = "2023-12-13 19:26:32 +0000";
layers = (
{
anchors = (
{
name = bottom;
pos = (339,0);
},
{
name = top;
pos = (339,700);
}
);
hints = (
{
horizontal = 1;
place = (653,71);
type = Stem;
},
{
horizontal = 1;
place = (314,72);
type = Stem;
},
{
horizontal = 1;
place = (-24,21);
target = up;
type = BottomGhost;
},
{
place = (389,90);
type = Stem;
},
{
place = (51,90);
type = Stem;
}
);
layerId = "2F065738-4B59-43EB-A5F2-FD5F277958EA";
shapes = (
{
closed = 1;
nodes = (
(197,-9,o),
(220,10,o),
(220,47,cs),
(220,186,ls),
(220,271,o),
(227,291,o),
(352,291,cs),
(461,291,o),
(532,336,o),
(555,420,cs),
(560,439,o),
(563,460,o),
(563,503,cs),
(563,642,o),
(481,711,o),
(330,711,cs),
(148,711,o),
(76,635,o),
(76,486,cs),
(76,47,ls),
(76,12,o),
(104,-9,o),
(150,-9,cs)
);
},
{
closed = 1;
nodes = (
(218,417,o),
(220,463,o),
(220,503,cs),
(220,567,o),
(255,594,o),
(330,594,cs),
(407,594,o),
(437,570,o),
(437,503,cs),
(437,424,o),
(410,412,o),
(313,412,cs),
(250,412,o),
(234,398,o),
(211,378,c)
);
},
{
closed = 1;
nodes = (
(352,353,l),
(354,296,l),
(398,279,o),
(411,250,o),
(411,158,cs),
(411,46,ls),
(411,10,o),
(439,-11,o),
(485,-11,cs),
(532,-11,o),
(554,12,o),
(554,56,cs),
(554,232,ls),
(554,277,o),
(527,320,o),
(483,349,c),
(508,364,o),
(527,385,o),
(538,414,c)
);
}
);
width = 620;
}
);
metricLeft = H;
metricRight = O;
note = R;
unicode = 82;
},
{
color = 6;
glyphname = S;
lastChange = "2023-12-11 13:22:51 +0000";
layers = (
{
anchors = (
{
name = bottom;
pos = (295,0);
},
{
name = top;
pos = (295,700);
}
);
guides = (
{
angle = 90;
pos = (295,712);
}
);
hints = (
{
horizontal = 1;
place = (653,72);
type = Stem;
},
{
horizontal = 1;
place = (314,72);
type = Stem;
},
{
horizontal = 1;
place = (-24,72);
type = Stem;
},
{
place = (388,90);
type = Stem;
},
{
place = (51,90);
type = Stem;
}
);
layerId = "2F065738-4B59-43EB-A5F2-FD5F277958EA";
shapes = (
{
closed = 1;
nodes = (
(402,-12,o),
(500,64,o),
(500,205,cs),
(500,302,o),
(459,367,o),
(333,405,cs),
(222,438,o),
(188,471,o),
(188,514,cs),
(188,560,o),
(217,579,o),
(275,579,cs),
(312,579,o),
(352,568,o),
(386,568,cs),
(437,568,o),
(459,593,o),
(459,632,cs),
(459,660,o),
(445,678,o),
(417,689,cs),
(383,703,o),
(334,711,o),
(283,711,cs),
(144,711,o),
(45,633,o),
(45,498,cs),
(45,394,o),
(107,333,o),
(255,289,cs),
(337,265,o),
(357,232,o),
(357,188,cs),
(357,131,o),
(323,117,o),
(241,117,cs),
(204,117,o),
(147,131,o),
(113,131,cs),
(62,131,o),
(40,106,o),
(40,67,cs),
(40,39,o),
(54,21,o),
(82,10,cs),
(116,-4,o),
(179,-12,o),
(230,-12,cs)
);
}
);
width = 588;
}
);
note = S;
unicode = 83;
},
{
color = 6;
glyphname = T;
lastChange = "2023-12-12 20:21:15 +0000";
layers = (
{
anchors = (
{
name = bottom;
pos = (260,0);
},
{
name = center;
pos = (260,350);
},
{
name = top;
pos = (260,700);
}
);
hints = (
{
horizontal = 1;
place = (651,73);
type = Stem;
},
{
horizontal = 1;
place = (-24,21);
target = up;
type = BottomGhost;
},
{
place = (220,91);
type = Stem;
},
{
place = (51,89);
type = Stem;
}
);
layerId = "2F065738-4B59-43EB-A5F2-FD5F277958EA";
shapes = (
{
closed = 1;
nodes = (
(314,-11,o),
(346,5,o),
(346,38,cs),
(346,561,l),
(492,561,ls),
(524,561,o),
(539,596,o),
(539,631,cs),
(539,667,o),
(523,700,o),
(492,700,cs),
(56,700,ls),
(25,700,o),
(9,667,o),
(9,631,cs),
(9,596,o),
(24,561,o),
(56,561,cs),
(244,561,l),
(230,557,o),
(201,545,o),
(201,503,cs),
(202,38,ls),
(202,3,o),
(244,-11,o),
(278,-11,cs)
);
}
);
width = 528;
}
);
note = T;
unicode = 84;
},
{
color = 6;
glyphname = U;
lastChange = "2023-12-13 19:24:36 +0000";
layers = (
{
anchors = (
{
name = bottom;
pos = (312,0);
},
{
name = ogonek;
pos = (523,10);
},
{
name = top;
pos = (312,700);
},
{
name = topright;
pos = (556,700);
}
);
hints = (
{
horizontal = 1;
place = (724,-20);
target = down;
type = TopGhost;
},
{
horizontal = 1;
place = (723,-20);
target = down;
type = TopGhost;
},
{
horizontal = 1;
place = (-24,72);
type = Stem;
},
{
place = (389,90);
type = Stem;
},
{
place = (51,90);
type = Stem;
}
);
layerId = "2F065738-4B59-43EB-A5F2-FD5F277958EA";
shapes = (
{
closed = 1;
nodes = (
(485,-11,o),
(576,71,o),
(576,232,cs),
(576,633,ls),
(576,685,o),
(552,711,o),
(504,711,cs),
(456,711,o),
(432,685,o),
(432,633,cs),
(432,232,ls),
(432,150,o),
(389,111,o),
(310,111,cs),
(243,111,o),
(204,148,o),
(204,232,cs),
(204,633,ls),
(204,685,o),
(180,711,o),
(132,711,cs),
(84,711,o),
(60,685,o),
(60,633,cs),
(60,232,ls),
(60,69,o),
(147,-11,o),
(310,-11,cs)
);
}
);
width = 636;
}
);
metricLeft = "=A";
metricRight = "=|";
note = U;
unicode = 85;
},
{
color = 6;
glyphname = V;
lastChange = "2023-12-12 20:17:10 +0000";
layers = (
{
anchors = (
{
name = bottom;
pos = (297,0);
},
{
name = top;
pos = (297,700);
}
);
background = {
shapes = (
{
closed = 1;
nodes = (
(379,-11,o),
(425,18,o),
(461,94,cs),
(536,251,o),
(595,389,o),
(595,556,cs),
(595,625,o),
(579,711,o),
(504,711,cs),
(448,711,o),
(428,678,o),
(428,646,cs),
(428,632,o),
(432,611,o),
(436,590,cs),
(441,569,o),
(445,548,o),
(445,515,cs),
(445,416,o),
(410,312,o),
(324,157,c),
(183,614,ls),
(161,684,o),
(142,711,o),
(97,711,cs),
(35,711,o),
(-4,673,o),
(18,604,cs),
(180,99,ls),
(203,29,o),
(262,-11,o),
(319,-11,cs)
);
}
);
};
hints = (
{
horizontal = 1;
place = (724,-20);
target = down;
type = TopGhost;
},
{
horizontal = 1;
place = (-23,71);
type = Stem;
},
{
place = (388,89);
type = Stem;
},
{
place = (51,90);
type = Stem;
}
);
layerId = "2F065738-4B59-43EB-A5F2-FD5F277958EA";
shapes = (
{
closed = 1;
nodes = (
(377,-11,o),
(423,18,o),
(459,94,cs),
(534,251,o),
(593,389,o),
(593,556,cs),
(593,625,o),
(577,711,o),
(502,711,cs),
(446,711,o),
(426,678,o),
(426,646,cs),
(426,632,o),
(430,611,o),
(434,590,cs),
(439,569,o),
(443,548,o),
(443,515,cs),
(443,416,o),
(408,312,o),
(322,157,c),
(181,614,ls),
(159,684,o),
(140,711,o),
(95,711,cs),
(33,711,o),
(-6,673,o),
(16,604,cs),
(178,99,ls),
(201,29,o),
(260,-11,o),
(317,-11,cs)
);
}
);
width = 624;
}
);
note = V;
unicode = 86;
},
{
color = 6;
glyphname = W;
lastChange = "2023-12-12 20:17:10 +0000";
layers = (
{
anchors = (
{
name = bottom;
pos = (485,0);
},
{
name = top;
pos = (485,700);
}
);
hints = (
{
horizontal = 1;
place = (724,-20);
target = down;
type = TopGhost;
},
{
horizontal = 1;
place = (723,-20);
target = down;
type = TopGhost;
},
{
horizontal = 1;
place = (-24,72);
type = Stem;
},
{
place = (727,89);
type = Stem;
},
{
place = (388,91);
type = Stem;
},
{
place = (51,90);
type = Stem;
},
{
horizontal = 1;
place = (724,-20);
target = down;
type = TopGhost;
},
{
horizontal = 1;
place = (-23,71);
type = Stem;
},
{
place = (410.008,89);
type = Stem;
},
{
place = (126.852,90);
type = Stem;
},
{
horizontal = 1;
place = (724,-20);
target = down;
type = TopGhost;
},
{
horizontal = 1;
place = (-23,71);
type = Stem;
},
{
place = (771.008,89);
type = Stem;
},
{
place = (487.852,90);
type = Stem;
}
);
layerId = "2F065738-4B59-43EB-A5F2-FD5F277958EA";
shapes = (
{
closed = 1;
nodes = (
(412,-11,o),
(457,18,o),
(491,94,cs),
(563,251,o),
(620,389,o),
(620,556,cs),
(620,625,o),
(604,711,o),
(532,711,cs),
(479,711,o),
(460,678,o),
(460,646,cs),
(460,632,o),
(463,611,o),
(467,590,cs),
(472,569,o),
(476,548,o),
(476,515,cs),
(476,416,o),
(442,312,o),
(360,157,c),
(224,614,ls),
(203,684,o),
(185,711,o),
(142,711,cs),
(82,711,o),
(45,673,o),
(66,604,cs),
(222,99,ls),
(244,29,o),
(300,-11,o),
(355,-11,cs)
);
},
{
closed = 1;
nodes = (
(815,-11,o),
(859,18,o),
(893,94,cs),
(965,251,o),
(1022,389,o),
(1022,556,cs),
(1022,625,o),
(1006,711,o),
(934,711,cs),
(881,711,o),
(862,678,o),
(862,646,cs),
(862,632,o),
(865,611,o),
(869,590,cs),
(874,569,o),
(878,548,o),
(878,515,cs),
(878,416,o),
(844,312,o),
(762,157,c),
(626,614,ls),
(605,684,o),
(587,711,o),
(544,711,cs),
(484,711,o),
(447,673,o),
(468,604,cs),
(624,99,ls),
(646,29,o),
(702,-11,o),
(757,-11,cs)
);
}
);
width = 1052;
}
);
metricLeft = M;
note = W;
unicode = 87;
},
{
color = 6;
glyphname = X;
lastChange = "2023-12-12 20:17:10 +0000";
layers = (
{
layerId = "2F065738-4B59-43EB-A5F2-FD5F277958EA";
shapes = (
{
closed = 1;
nodes = (
(165,683,ls),
(155,697,o),
(132,711,o),
(107,711,cs),
(93,711,o),
(78,707,o),
(64,695,cs),
(43,676,o),
(35,656,o),
(35,638,cs),
(35,620,o),
(44,603,o),
(55,590,cs),
(252,356,l),
(252,356,o),
(206,308,o),
(168,257,cs),
(147,228,o),
(68,110,o),
(56,72,cs),
(37,13,o),
(104,-11,o),
(136,-11,cs),
(165,-11,o),
(182,3,o),
(194,30,cs),
(223,94,o),
(336,261,o),
(336,261,cs),
(506,17,ls),
(516,2,o),
(539,-11,o),
(564,-11,cs),
(578,-11,o),
(593,-7,o),
(607,5,cs),
(627,23,o),
(635,43,o),
(635,61,cs),
(635,80,o),
(626,97,o),
(616,109,cs),
(420,359,ls),
(420,359,o),
(597,512,o),
(635,628,cs),
(641,646,o),
(635,680,o),
(595,700,cs),
(533,731,o),
(503,686,o),
(493,662,cs),
(471,611,o),
(336,452,o),
(336,452,cs)
);
}
);
width = 667;
}
);
unicode = 88;
},
{
color = 6;
glyphname = Y;
lastChange = "2023-12-13 19:19:51 +0000";
layers = (
{
layerId = "2F065738-4B59-43EB-A5F2-FD5F277958EA";
shapes = (
{
closed = 1;
nodes = (
(386,131,o),
(352,117,o),
(270,117,cs),
(233,117,o),
(173,119,o),
(139,119,cs),
(88,119,o),
(68,102,o),
(68,63,cs),
(68,35,o),
(83,21,o),
(111,10,cs),
(145,-4,o),
(208,-12,o),
(259,-12,cs),
(431,-12,o),
(529,64,o),
(529,205,cs),
(529,240,o),
(529,205,o),
(529,205,cs),
(529,205,o),
(386,193,o),
(386,193,cs),
(386,193,o),
(386,193,o),
(386,188,c)
);
},
{
closed = 1;
nodes = (
(529,196,l),
(530,341,o),
(440,384,o),
(265,384,c),
(264,303,l),
(343,303,o),
(386,262,o),
(386,180,c)
);
},
{
closed = 1;
nodes = (
(380,282,o),
(399,272,o),
(472,301,cs),
(515,318,o),
(587,426,o),
(587,572,cs),
(587,633,o),
(575,709,o),
(508,709,cs),
(455,709,o),
(435,680,o),
(435,633,cs),
(435,639,o),
(443,565,o),
(443,536,cs),
(443,449,o),
(405,406,o),
(346,391,c),
(242,623,ls),
(215,683,o),
(196,709,o),
(151,709,cs),
(89,709,o),
(51,673,o),
(77,615,cs),
(181,379,ls),
(208,319,o),
(263,282,o),
(320,282,cs)
);
}
);
width = 600;
}
);
unicode = 89;
},
{
color = 6;
glyphname = Z;
lastChange = "2023-12-12 20:17:10 +0000";
layers = (
{
layerId = "2F065738-4B59-43EB-A5F2-FD5F277958EA";
shapes = (
{
closed = 1;
nodes = (
(487,-7,ls),
(525,-7,o),
(544,13,o),
(544,53,cs),
(544,94,o),
(525,115,o),
(487,115,cs),
(223,115,ls),
(218,115,o),
(246,109,o),
(275,164,cs),
(466,521,l),
(516,620,o),
(516,623,o),
(516,640,cs),
(516,682,o),
(492,700,o),
(447,700,cs),
(117,700,ls),
(79,700,o),
(60,680,o),
(60,640,cs),
(60,599,o),
(79,578,o),
(117,578,cs),
(355,578,ls),
(374,578,o),
(337,581,o),
(309,529,cs),
(230,384,o),
(150,238,o),
(71,93,c),
(69,75,o),
(68,64,o),
(68,53,cs),
(68,11,o),
(87,-7,o),
(132,-7,cs)
);
}
);
width = 604;
}
);
metricLeft = A;
metricRight = A;
unicode = 90;
},
{
color = 6;
glyphname = a;
lastChange = "2023-12-11 13:45:10 +0000";
layers = (
{
anchors = (
{
name = bottom;
pos = (262,0);
},
{
name = ogonek;
pos = (471,10);
},
{
name = top;
pos = (262,500);
}
);
background = {
shapes = (
{
pos = (-26,0);
ref = o;
}
);
};
hints = (
{
horizontal = 1;
place = (323,63);
type = Stem;
},
{
horizontal = 1;
place = (192,64);
type = Stem;
},
{
horizontal = 1;
place = (-21,72);
type = Stem;
},
{
place = (382,90);
type = Stem;
},
{
place = (51,90);
type = Stem;
},
{
horizontal = 1;
place = (186,-72);
type = Stem;
},
{
horizontal = 1;
place = (349,-72);
type = Stem;
},
{
horizontal = 1;
place = (524,-72);
type = Stem;
},
{
place = (146,-90);
type = Stem;
},
{
place = (473,-90);
type = Stem;
},
{
horizontal = 1;
place = (323,63);
type = Stem;
},
{
horizontal = 1;
place = (192,64);
type = Stem;
},
{
horizontal = 1;
place = (-21,72);
type = Stem;
},
{
place = (378,90);
type = Stem;
},
{
place = (47,90);
type = Stem;
},
{
horizontal = 1;
place = (186,-72);
type = Stem;
},
{
horizontal = 1;
place = (349,-72);
type = Stem;
},
{
horizontal = 1;
place = (524,-72);
type = Stem;
},
{
place = (123,-90);
type = Stem;
},
{
place = (450,-90);
type = Stem;
},
{
horizontal = 1;
place = (323,63);
type = Stem;
},
{
horizontal = 1;
place = (192,64);
type = Stem;
},
{
horizontal = 1;
place = (-21,72);
type = Stem;
},
{
place = (355,90);
type = Stem;
},
{
place = (24,90);
type = Stem;
}
);
layerId = "2F065738-4B59-43EB-A5F2-FD5F277958EA";
shapes = (
{
closed = 1;
nodes = (
(408,-12,o),
(466,71,o),
(466,242,cs),
(466,428,o),
(398,516,o),
(190,511,cs),
(107,509,o),
(76,491,o),
(76,448,cs),
(76,412,o),
(94,385,o),
(158,389,cs),
(304,398,o),
(321,389,o),
(321,243,cs),
(321,122,o),
(310,100,o),
(253,100,cs),
(199,100,o),
(172,120,o),
(172,157,cs),
(172,209,o),
(215,224,o),
(333,215,c),
(333,309,l),
(129,326,o),
(28,273,o),
(28,157,cs),
(28,50,o),
(104,-12,o),
(244,-12,cs)
);
}
);
width = 501;
}
);
metricRight = o;
note = a;
unicode = 97;
},
{
color = 6;
glyphname = b;
lastChange = "2023-12-09 13:38:31 +0000";
layers = (
{
anchors = (
{
name = bottom;
pos = (298,0);
},
{
name = center;
pos = (298,240);
},
{
name = top;
pos = (298,480);
}
);
background = {
shapes = (
{
pos = (37,0);
ref = o;
}
);
};
hints = (
{
horizontal = 1;
place = (724,-20);
target = down;
type = TopGhost;
},
{
horizontal = 1;
place = (314,72);
type = Stem;
},
{
horizontal = 1;
place = (-24,72);
type = Stem;
},
{
place = (389,90);
type = Stem;
},
{
place = (51,90);
type = Stem;
}
);
layerId = "2F065738-4B59-43EB-A5F2-FD5F277958EA";
shapes = (
{
closed = 1;
nodes = (
(464,-12,o),
(537,69,o),
(537,251,cs),
(537,428,o),
(468,512,o),
(321,512,cs),
(253,512,o),
(214,494,o),
(188,450,c),
(199,484,o),
(203,525,o),
(203,594,cs),
(203,684,ls),
(203,737,o),
(182,762,o),
(136,762,cs),
(88,762,o),
(63,735,o),
(63,684,cs),
(63,258,ls),
(63,69,o),
(134,-12,o),
(299,-12,cs)
);
},
{
closed = 1;
nodes = (
(238,108,o),
(207,155,o),
(207,250,cs),
(207,345,o),
(238,392,o),
(301,392,cs),
(363,392,o),
(393,346,o),
(393,252,cs),
(393,156,o),
(362,108,o),
(300,108,cs)
);
}
);
width = 572;
}
);
metricLeft = n;
metricRight = o;
note = b;
unicode = 98;
},
{
color = 6;
glyphname = c;
lastChange = "2023-12-11 13:52:56 +0000";
layers = (
{
anchors = (
{
name = bottom;
pos = (248,0);
},
{
name = ogonek;
pos = (454,10);
},
{
name = top;
pos = (255,500);
}
);
background = {
shapes = (
{
pos = (4,-25);
ref = g;
}
);
};
hints = (
{
horizontal = 1;
place = (314,72);
type = Stem;
},
{
horizontal = 1;
place = (-23,72);
type = Stem;
},
{
place = (390,89);
type = Stem;
},
{
place = (51,90);
type = Stem;
},
{
horizontal = 1;
place = (314,72);
type = Stem;
},
{
horizontal = 1;
place = (151,72);
type = Stem;
},
{
horizontal = 1;
place = (-24,72);
type = Stem;
},
{
place = (377,90);
type = Stem;
},
{
place = (50,90);
type = Stem;
},
{
horizontal = 1;
place = (177,-63);
type = Stem;
},
{
horizontal = 1;
place = (308,-64);
type = Stem;
},
{
horizontal = 1;
place = (521,-72);
type = Stem;
},
{
place = (145,-90);
type = Stem;
},
{
place = (476,-90);
type = Stem;
}
);
layerId = "2F065738-4B59-43EB-A5F2-FD5F277958EA";
shapes = (
{
closed = 1;
nodes = (
(179,386,o),
(267,386,o),
(360,386,cs),
(408,386,o),
(432,405,o),
(432,442,cs),
(432,486,o),
(395,508,o),
(321,508,cs),
(167,508,o),
(35,457,o),
(35,245,cs),
(35,61,o),
(118,-11,o),
(295,-11,cs),
(398,-11,o),
(443,14,o),
(443,69,cs),
(443,108,o),
(420,117,o),
(384,117,cs),
(345,117,o),
(329,106,o),
(278,106,cs),
(212,106,o),
(179,147,o),
(179,246,cs)
);
}
);
width = 478;
}
);
metricLeft = o;
metricRight = o;
note = c;
unicode = 99;
},
{
color = 6;
glyphname = e;
lastChange = "2023-12-09 13:50:00 +0000";
layers = (
{
anchors = (
{
name = bottom;
pos = (249,0);
},
{
name = ogonek;
pos = (455,10);
},
{
name = top;
pos = (256,500);
}
);
background = {
shapes = (
{
pos = (-4,0);
ref = o;
}
);
};
hints = (
{
horizontal = 1;
place = (314,72);
type = Stem;
},
{
horizontal = 1;
place = (151,72);
type = Stem;
},
{
horizontal = 1;
place = (-24,72);
type = Stem;
},
{
place = (377,90);
type = Stem;
},
{
place = (50,90);
type = Stem;
},
{
horizontal = 1;
place = (177,-63);
type = Stem;
},
{
horizontal = 1;
place = (308,-64);
type = Stem;
},
{
horizontal = 1;
place = (521,-72);
type = Stem;
},
{
place = (145,-90);
type = Stem;
},
{
place = (476,-90);
type = Stem;
}
);
layerId = "2F065738-4B59-43EB-A5F2-FD5F277958EA";
shapes = (
{
closed = 1;
nodes = (
(444,14,o),
(444,69,cs),
(444,108,o),
(421,122,o),
(385,122,cs),
(346,122,o),
(325,106,o),
(274,106,cs),
(194,106,o),
(179,146,o),
(179,257,cs),
(179,376,o),
(196,407,o),
(251,407,cs),
(299,407,o),
(328,384,o),
(328,337,cs),
(328,295,o),
(305,290,o),
(228,290,cs),
(201,290,o),
(184,286,o),
(167,283,c),
(167,189,l),
(234,189,ls),
(409,189,o),
(472,236,o),
(472,339,cs),
(472,454,o),
(393,512,o),
(259,512,cs),
(106,512,o),
(35,437,o),
(35,256,cs),
(35,72,o),
(109,-11,o),
(296,-11,cs),
(399,-11,o)
);
}
);
width = 504;
}
);
metricLeft = o;
note = e;
unicode = 101;
},
{
color = 6;
glyphname = f;
lastChange = "2023-12-11 13:55:16 +0000";
layers = (
{
background = {
anchors = (
{
name = bottom;
pos = (576,0);
},
{
name = top;
pos = (576,742);
}
);
};
hints = (
{
horizontal = 1;
place = (652,73);
type = Stem;
},
{
horizontal = 1;
place = (315,73);
type = Stem;
},
{
horizontal = 1;
place = (-24,21);
target = up;
type = BottomGhost;
},
{
place = (51,90);
type = Stem;
}
);
layerId = "2F065738-4B59-43EB-A5F2-FD5F277958EA";
shapes = (
{
closed = 1;
nodes = (
(228,-11,o),
(253,15,o),
(253,68,cs),
(253,379,l),
(310,379,ls),
(354,379,o),
(378,400,o),
(378,439,cs),
(378,478,o),
(354,500,o),
(310,500,cs),
(253,500,l),
(253,511,ls),
(253,625,o),
(259,635,o),
(335,635,cs),
(401,635,o),
(425,650,o),
(425,694,cs),
(425,742,o),
(397,762,o),
(326,762,cs),
(183,762,o),
(109,682,o),
(109,520,cs),
(109,500,l),
(99,500,ls),
(49,500,o),
(25,478,o),
(25,439,cs),
(25,400,o),
(49,379,o),
(99,379,cs),
(109,379,l),
(109,68,ls),
(109,24,o),
(134,-11,o),
(183,-11,cs)
);
}
);
width = 363;
}
);
note = f;
unicode = 102;
},
{
color = 6;
glyphname = g;
lastChange = "2023-12-09 13:38:31 +0000";
layers = (
{
anchors = (
{
name = bottom;
pos = (257,-258);
},
{
name = top;
pos = (257,480);
}
);
background = {
shapes = (
{
closed = 1;
nodes = (
(402,-230,o),
(494,-175,o),
(494,-60,cs),
(494,6,o),
(472,48,o),
(423,78,c),
(472,116,o),
(494,173,o),
(494,262,cs),
(494,429,o),
(417,512,o),
(263,512,cs),
(109,512,o),
(32,430,o),
(32,263,cs),
(32,98,o),
(107,18,o),
(262,18,cs),
(318,18,o),
(350,-9,o),
(350,-55,cs),
(350,-96,o),
(310,-112,o),
(206,-112,cs),
(91,-112,o),
(64,-122,o),
(64,-167,cs),
(64,-220,o),
(88,-230,o),
(211,-230,cs)
);
},
{
closed = 1;
nodes = (
(200,138,o),
(176,173,o),
(176,263,cs),
(176,354,o),
(201,392,o),
(263,392,cs),
(325,392,o),
(350,354,o),
(350,263,cs),
(350,173,o),
(326,138,o),
(263,138,cs)
);
},
{
closed = 1;
nodes = (
(388,404,o),
(427,432,o),
(480,432,cs),
(544,432,o),
(570,450,o),
(570,496,cs),
(570,545,o),
(541,572,o),
(491,572,cs),
(439,572,o),
(405,543,o),
(384,481,c),
(388,365,l)
);
},
{
pos = (-4,0);
ref = o;
}
);
};
hints = (
{
place = (389,90);
type = Stem;
},
{
place = (314,72);
type = Stem;
},
{
place = (51,90);
type = Stem;
},
{
place = (-24,72);
type = Stem;
},
{
place = (-362,72);
type = Stem;
}
);
layerId = "2F065738-4B59-43EB-A5F2-FD5F277958EA";
shapes = (
{
closed = 1;
nodes = (
(396,-230,o),
(494,-177,o),
(494,-55,cs),
(494,6,o),
(469,60,o),
(403,78,c),
(472,116,o),
(494,173,o),
(494,262,cs),
(494,429,o),
(417,512,o),
(263,512,cs),
(109,512,o),
(32,430,o),
(32,263,cs),
(32,98,o),
(107,18,o),
(262,18,cs),
(313,18,o),
(350,-10,o),
(350,-51,cs),
(350,-101,o),
(296,-112,o),
(166,-112,cs),
(85,-112,o),
(64,-129,o),
(64,-168,cs),
(64,-222,o),
(103,-230,o),
(185,-230,cs)
);
},
{
closed = 1;
nodes = (
(205,138,o),
(176,179,o),
(176,263,cs),
(176,349,o),
(205,392,o),
(263,392,cs),
(321,392,o),
(350,349,o),
(350,263,cs),
(350,179,o),
(321,138,o),
(263,138,cs)
);
},
{
closed = 1;
nodes = (
(388,413,o),
(427,432,o),
(486,432,cs),
(544,432,o),
(570,450,o),
(570,496,cs),
(570,545,o),
(541,572,o),
(491,572,cs),
(439,572,o),
(405,543,o),
(389,481,c),
(388,365,l)
);
}
);
width = 558;
}
);
note = g;
unicode = 103;
},
{
color = 6;
glyphname = h;
lastChange = "2023-12-09 13:38:31 +0000";
layers = (
{
anchors = (
{
name = bottom;
pos = (295,0);
}
);
background = {
shapes = (
{
ref = n;
}
);
};
hints = (
{
horizontal = 1;
place = (724,-20);
target = down;
type = TopGhost;
},
{
horizontal = 1;
place = (313,71);
type = Stem;
},
{
horizontal = 1;
place = (-20,21);
target = up;
type = BottomGhost;
},
{
horizontal = 1;
place = (-24,21);
target = up;
type = BottomGhost;
},
{
place = (387,90);
type = Stem;
},
{
place = (51,90);
type = Stem;
},
{
horizontal = 1;
place = (314,72);
type = Stem;
},
{
horizontal = 1;
place = (-22,21);
target = up;
type = BottomGhost;
},
{
horizontal = 1;
place = (-23,21);
target = up;
type = BottomGhost;
},
{
place = (344,90);
type = Stem;
},
{
place = (13,90);
type = Stem;
}
);
layerId = "2F065738-4B59-43EB-A5F2-FD5F277958EA";
shapes = (
{
closed = 1;
nodes = (
(184,-11,o),
(204,15,o),
(204,57,cs),
(204,293,ls),
(204,347,o),
(230,392,o),
(292,392,cs),
(354,392,o),
(380,347,o),
(380,293,cs),
(380,57,ls),
(380,15,o),
(400,-11,o),
(452,-11,cs),
(504,-11,o),
(524,15,o),
(524,57,cs),
(524,289,ls),
(524,446,o),
(428,512,o),
(306,512,cs),
(258,512,o),
(215,502,o),
(179,470,c),
(197,501,o),
(205,533,o),
(205,573,cs),
(205,676,ls),
(205,724,o),
(185,754,o),
(133,754,cs),
(81,754,o),
(60,724,o),
(60,676,cs),
(60,57,ls),
(60,15,o),
(80,-11,o),
(132,-11,cs)
);
}
);
width = 583;
}
);
metricRight = n;
note = h;
unicode = 104;
},
{
color = 6;
glyphname = i;
lastChange = "2023-12-09 13:38:31 +0000";
layers = (
{
anchors = (
{
name = bottom;
pos = (141,0);
}
);
hints = (
{
horizontal = 1;
place = (547,39);
type = Stem;
},
{
horizontal = 1;
place = (448,40);
type = Stem;
},
{
horizontal = 1;
place = (-21,21);
target = up;
type = BottomGhost;
},
{
place = (166,41);
type = Stem;
},
{
place = (84,90);
type = Stem;
},
{
place = (50,42);
type = Stem;
}
);
layerId = "2F065738-4B59-43EB-A5F2-FD5F277958EA";
shapes = (
{
closed = 1;
nodes = (
(193,-12,o),
(213,14,o),
(213,56,cs),
(213,444,ls),
(213,486,o),
(193,512,o),
(141,512,cs),
(89,512,o),
(69,486,o),
(69,444,cs),
(69,56,ls),
(69,14,o),
(89,-12,o),
(141,-12,cs)
);
},
{
closed = 1;
nodes = (
(191,594,o),
(228,630,o),
(228,677,cs),
(228,726,o),
(191,762,o),
(141,762,cs),
(91,762,o),
(54,726,o),
(54,677,cs),
(54,630,o),
(91,594,o),
(141,594,cs)
);
}
);
width = 282;
}
);
note = i;
unicode = 105;
},
{
color = 6;
glyphname = j;
lastChange = "2023-12-09 13:38:31 +0000";
layers = (
{
guides = (
{
angle = 90;
pos = (156,678);
}
);
layerId = "2F065738-4B59-43EB-A5F2-FD5F277958EA";
shapes = (
{
closed = 1;
nodes = (
(166,-261,o),
(228,-170,o),
(228,-19,cs),
(228,433,ls),
(228,478,o),
(208,512,o),
(156,512,cs),
(112,512,o),
(88,488,o),
(88,433,cs),
(88,-10,ls),
(88,-124,o),
(82,-134,o),
(6,-134,cs),
(-60,-134,o),
(-84,-149,o),
(-84,-193,cs),
(-84,-241,o),
(-56,-261,o),
(15,-261,cs)
);
},
{
closed = 1;
nodes = (
(206,594,o),
(243,630,o),
(243,677,cs),
(243,726,o),
(206,762,o),
(156,762,cs),
(106,762,o),
(69,726,o),
(69,677,cs),
(69,630,o),
(106,594,o),
(156,594,cs)
);
}
);
width = 297;
}
);
metricRight = i;
unicode = 106;
},
{
color = 6;
glyphname = k;
lastChange = "2023-12-12 19:48:31 +0000";
layers = (
{
background = {
backgroundImage = {
imagePath = "../../../../Desktop/Screenshot 2023-12-08 at 15.32.01.png";
pos = (-224,-187);
scale = (10.8258,10.8258);
};
};
layerId = "2F065738-4B59-43EB-A5F2-FD5F277958EA";
shapes = (
{
closed = 1;
nodes = (
(168,-11,o),
(188,17,o),
(190,61,cs),
(190,63,o),
(190,65,o),
(190,67,cs),
(190,683,ls),
(190,731,o),
(170,761,o),
(118,761,cs),
(66,761,o),
(46,731,o),
(46,683,cs),
(46,67,ls),
(46,19,o),
(66,-11,o),
(118,-11,cs)
);
},
{
closed = 1;
nodes = (
(234,279,l),
(245,285,o),
(273,251,o),
(287,258,c),
(379,307,o),
(467,372,o),
(485,467,cs),
(490,493,o),
(485,523,o),
(448,542,cs),
(413,560,o),
(368,560,o),
(353,522,cs),
(313,422,o),
(256,353,o),
(149,289,c),
(155,326,l),
(133,288,l)
);
},
{
closed = 1;
nodes = (
(188,64,l),
(189,161,o),
(217,204,o),
(268,204,cs),
(319,204,o),
(352,159,o),
(352,57,cs),
(352,11,o),
(377,-11,o),
(425,-11,cs),
(471,-11,o),
(496,11,o),
(496,57,cs),
(496,262,o),
(395,323,o),
(268,323,cs),
(189,323,o),
(126,302,o),
(87,244,c)
);
}
);
width = 541;
}
);
unicode = 107;
},
{
color = 6;
glyphname = l;
lastChange = "2023-12-09 13:38:31 +0000";
layers = (
{
layerId = "2F065738-4B59-43EB-A5F2-FD5F277958EA";
shapes = (
{
closed = 1;
nodes = (
(187,-12,o),
(207,18,o),
(207,66,cs),
(207,684,ls),
(207,732,o),
(187,762,o),
(135,762,cs),
(83,762,o),
(63,732,o),
(63,684,cs),
(63,66,ls),
(63,18,o),
(83,-12,o),
(135,-12,cs)
);
}
);
width = 266;
}
);
metricLeft = n;
metricRight = n;
unicode = 108;
},
{
color = 6;
glyphname = m;
lastChange = "2023-12-09 13:38:31 +0000";
layers = (
{
hints = (
{
horizontal = 1;
place = (313,72);
type = Stem;
},
{
horizontal = 1;
place = (-21,21);
target = up;
type = BottomGhost;
},
{
horizontal = 1;
place = (-22,21);
target = up;
type = BottomGhost;
},
{
place = (638,89);
type = Stem;
},
{
place = (343,92);
type = Stem;
},
{
place = (51,91);
type = Stem;
}
);
layerId = "2F065738-4B59-43EB-A5F2-FD5F277958EA";
shapes = (
{
closed = 1;
nodes = (
(183,-11,o),
(207,11,o),
(207,57,cs),
(207,282,ls),
(207,361,o),
(227,391,o),
(279,391,cs),
(336,391,o),
(361,355,o),
(361,272,cs),
(361,57,ls),
(361,11,o),
(385,-11,o),
(433,-11,cs),
(481,-11,o),
(505,11,o),
(505,57,cs),
(505,272,ls),
(505,355,o),
(530,391,o),
(587,391,cs),
(639,391,o),
(659,361,o),
(659,282,cs),
(659,57,ls),
(659,11,o),
(683,-11,o),
(731,-11,cs),
(779,-11,o),
(803,11,o),
(803,57,cs),
(803,288,ls),
(803,445,o),
(743,511,o),
(602,511,cs),
(514,511,o),
(468,486,o),
(433,419,c),
(398,486,o),
(352,511,o),
(264,511,cs),
(123,511,o),
(63,445,o),
(63,288,cs),
(63,57,ls),
(63,11,o),
(87,-11,o),
(135,-11,cs)
);
}
);
width = 862;
}
);
metricLeft = n;
metricRight = n;
note = m;
unicode = 109;
},
{
color = 6;
glyphname = n;
lastChange = "2023-12-09 13:38:31 +0000";
layers = (
{
anchors = (
{
name = bottom;
pos = (287,0);
},
{
name = top;
pos = (287,480);
}
);
background = {
shapes = (
{
pos = (23,0);
ref = o;
}
);
};
hints = (
{
horizontal = 1;
place = (314,72);
type = Stem;
},
{
horizontal = 1;
place = (-22,21);
target = up;
type = BottomGhost;
},
{
horizontal = 1;
place = (-23,21);
target = up;
type = BottomGhost;
},
{
place = (382,90);
type = Stem;
},
{
place = (51,90);
type = Stem;
}
);
layerId = "2F065738-4B59-43EB-A5F2-FD5F277958EA";
shapes = (
{
closed = 1;
nodes = (
(186,-11,o),
(207,11,o),
(207,57,cs),
(207,292,ls),
(207,348,o),
(244,391,o),
(287,391,cs),
(334,391,o),
(371,348,o),
(371,292,cs),
(371,57,ls),
(371,11,o),
(396,-11,o),
(444,-11,cs),
(490,-11,o),
(515,11,o),
(515,57,cs),
(515,288,ls),
(515,422,o),
(424,511,o),
(287,511,cs),
(152,511,o),
(63,422,o),
(63,288,cs),
(63,57,ls),
(63,11,o),
(88,-11,o),
(134,-11,cs)
);
}
);
width = 574;
}
);
note = n;
unicode = 110;
},
{
color = 6;
glyphname = o;
lastChange = "2023-12-09 13:38:31 +0000";
layers = (
{
anchors = (
{
name = bottom;
pos = (266,0);
},
{
name = center;
pos = (266,240);
},
{
name = ogonek;
pos = (500,10);
},
{
name = top;
pos = (266,480);
},
{
name = topright;
pos = (527,480);
}
);
hints = (
{
horizontal = 1;
place = (314,72);
type = Stem;
},
{
horizontal = 1;
place = (-26,72);
type = Stem;
},
{
place = (377,90);
type = Stem;
},
{
place = (50,90);
type = Stem;
}
);
layerId = "2F065738-4B59-43EB-A5F2-FD5F277958EA";
shapes = (
{
closed = 1;
nodes = (
(409,-11,o),
(497,88,o),
(497,250,cs),
(497,412,o),
(409,511,o),
(266,511,cs),
(123,511,o),
(35,412,o),
(35,250,cs),
(35,88,o),
(123,-11,o),
(266,-11,cs)
);
},
{
closed = 1;
nodes = (
(211,109,o),
(179,160,o),
(179,250,cs),
(179,340,o),
(211,391,o),
(266,391,cs),
(321,391,o),
(353,340,o),
(353,250,cs),
(353,160,o),
(321,109,o),
(266,109,cs)
);
}
);
width = 532;
}
);
note = o;
unicode = 111;
},
{
color = 6;
glyphname = r;
lastChange = "2023-12-09 13:53:13 +0000";
layers = (
{
hints = (
{
horizontal = 1;
place = (315,72);
type = Stem;
},
{
horizontal = 1;
place = (-24,21);
target = up;
type = BottomGhost;
},
{
place = (51,92);
type = Stem;
}
);
layerId = "2F065738-4B59-43EB-A5F2-FD5F277958EA";
shapes = (
{
closed = 1;
nodes = (
(183,-11,o),
(207,11,o),
(207,57,cs),
(207,264,ls),
(207,347,o),
(234,371,o),
(329,371,cs),
(393,371,o),
(419,389,o),
(419,436,cs),
(419,485,o),
(391,509,o),
(333,509,cs),
(273,509,o),
(227,484,o),
(203,440,c),
(203,490,o),
(183,511,o),
(135,511,cs),
(87,511,o),
(63,489,o),
(63,443,cs),
(63,57,ls),
(63,11,o),
(87,-11,o),
(135,-11,cs)
);
}
);
width = 419;
}
);
metricLeft = n;
note = r;
unicode = 114;
},
{
color = 6;
glyphname = s;
lastChange = "2023-12-11 13:22:21 +0000";
layers = (
{
anchors = (
{
name = bottom;
pos = (269,0);
},
{
name = top;
pos = (269,480);
}
);
background = {
anchors = (
{
name = bottom;
pos = (269,0);
},
{
name = top;
pos = (269,480);
}
);
annotations = (
{
pos = (8,-111);
type = Text;
}
);
};
hints = (
{
horizontal = 1;
place = (314,72);
type = Stem;
},
{
horizontal = 1;
place = (151,72);
type = Stem;
},
{
horizontal = 1;
place = (-24,71);
type = Stem;
},
{
place = (378,90);
type = Stem;
},
{
place = (50,90);
type = Stem;
}
);
layerId = "2F065738-4B59-43EB-A5F2-FD5F277958EA";
shapes = (
{
closed = 1;
nodes = (
(371,-13,o),
(439,48,o),
(439,146,cs),
(439,227,o),
(384,277,o),
(288,304,cs),
(246,316,o),
(197,327,o),
(197,367,cs),
(197,391,o),
(214,402,o),
(253,402,cs),
(295,402,o),
(327,384,o),
(362,384,cs),
(391,384,o),
(417,390,o),
(417,435,cs),
(417,464,o),
(405,483,o),
(379,495,cs),
(352,507,o),
(314,512,o),
(262,512,cs),
(141,512,o),
(53,456,o),
(53,356,cs),
(53,279,o),
(99,230,o),
(189,207,cs),
(271,185,o),
(295,175,o),
(295,142,cs),
(295,111,o),
(275,95,o),
(242,95,cs),
(174,95,o),
(150,113,o),
(105,113,cs),
(71,113,o),
(50,104,o),
(50,64,cs),
(50,35,o),
(62,16,o),
(88,4,cs),
(115,-8,o),
(160,-13,o),
(231,-13,cs)
);
}
);
width = 489;
}
);
note = s;
unicode = 115;
},
{
color = 6;
glyphname = t;
lastChange = "2023-12-09 14:13:21 +0000";
layers = (
{
anchors = (
{
name = bottom;
pos = (205,0);
},
{
name = center;
pos = (205,250);
},
{
name = top;
pos = (205,500);
},
{
name = topright;
pos = (390,750);
}
);
hints = (
{
horizontal = 1;
place = (724,-20);
target = down;
type = TopGhost;
},
{
horizontal = 1;
place = (314,72);
type = Stem;
},
{
horizontal = 1;
place = (-25,73);
type = Stem;
},
{
place = (51,90);
type = Stem;
}
);
layerId = "2F065738-4B59-43EB-A5F2-FD5F277958EA";
shapes = (
{
closed = 1;
nodes = (
(368,-12,o),
(398,10,o),
(398,58,cs),
(398,100,o),
(374,115,o),
(308,115,cs),
(254,115,o),
(250,118,o),
(250,158,cs),
(250,378,l),
(301,378,ls),
(343,378,o),
(369,398,o),
(369,439,cs),
(369,479,o),
(343,499,o),
(301,499,cs),
(238,499,l),
(246,515,o),
(250,542,o),
(250,561,cs),
(250,610,ls),
(250,656,o),
(222,683,o),
(180,683,cs),
(135,683,o),
(106,651,o),
(106,608,cs),
(106,499,l),
(80,499,ls),
(38,499,o),
(12,479,o),
(12,439,cs),
(12,398,o),
(38,378,o),
(80,378,cs),
(106,378,l),
(106,169,ls),
(106,77,o),
(127,-12,o),
(288,-12,cs)
);
}
);
width = 410;
}
);
note = t;
unicode = 116;
},
{
color = 6;
glyphname = u;
lastChange = "2023-12-09 13:38:31 +0000";
layers = (
{
anchors = (
{
name = bottom;
pos = (292,0);
},
{
name = top;
pos = (292,480);
}
);
background = {
shapes = (
{
pos = (26,0);
ref = o;
}
);
};
hints = (
{
horizontal = 1;
place = (-24,72);
type = Stem;
},
{
horizontal = 1;
place = (-2,21);
target = up;
type = BottomGhost;
},
{
place = (380,92);
type = Stem;
},
{
place = (51,90);
type = Stem;
},
{
horizontal = 1;
origin = (0,20);
place = (511,-72);
type = Stem;
},
{
horizontal = 1;
origin = (0,20);
target = down;
type = TopGhost;
},
{
horizontal = 1;
origin = (0,20);
target = down;
type = TopGhost;
},
{
origin = (0,20);
place = (135,-90);
type = Stem;
},
{
origin = (0,20);
place = (135,-90);
type = Stem;
}
);
layerId = "2F065738-4B59-43EB-A5F2-FD5F277958EA";
shapes = (
{
closed = 1;
nodes = (
(443,-11,o),
(521,65,o),
(521,212,cs),
(521,433,ls),
(521,485,o),
(497,511,o),
(449,511,cs),
(401,511,o),
(377,485,o),
(377,433,cs),
(377,208,ls),
(377,148,o),
(343,109,o),
(292,109,cs),
(241,109,o),
(207,148,o),
(207,208,cs),
(207,433,ls),
(207,485,o),
(183,511,o),
(135,511,cs),
(87,511,o),
(63,485,o),
(63,433,cs),
(63,212,ls),
(63,65,o),
(141,-11,o),
(292,-11,cs)
);
}
);
width = 580;
}
);
metricLeft = n;
metricRight = n;
note = u;
unicode = 117;
},
{
color = 2;
glyphname = v;
lastChange = "2023-12-12 19:57:25 +0000";
layers = (
{
layerId = "2F065738-4B59-43EB-A5F2-FD5F277958EA";
shapes = (
{
closed = 1;
nodes = (
(318,-11,o),
(346,10,o),
(405,105,cs),
(468,206,o),
(497,275,o),
(497,371,cs),
(497,399,o),
(496,429,o),
(488,465,cs),
(482,491,o),
(459,511,o),
(418,511,cs),
(377,511,o),
(339,486,o),
(346,446,cs),
(350,422,o),
(352,407,o),
(353,375,cs),
(355,314,o),
(342,245,o),
(285,142,c),
(160,466,ls),
(150,493,o),
(130,511,o),
(97,511,cs),
(61,511,o),
(20,491,o),
(20,446,cs),
(20,436,o),
(22,424,o),
(26,414,cs),
(158,94,ls),
(193,8,o),
(223,-11,o),
(275,-11,cs)
);
}
);
width = 517;
}
);
unicode = 118;
},
{
color = 2;
glyphname = w;
lastChange = "2023-12-12 20:02:26 +0000";
layers = (
{
layerId = "2F065738-4B59-43EB-A5F2-FD5F277958EA";
shapes = (
{
closed = 1;
nodes = (
(580,-11,o),
(612,6,o),
(655,83,cs),
(736,227,o),
(750,350,o),
(738,449,cs),
(733,491,o),
(707,511,o),
(666,511,cs),
(625,511,o),
(587,486,o),
(595,439,cs),
(613,335,o),
(594,256,o),
(553,142,c),
(454,448,ls),
(439,493,o),
(418,511,o),
(385,511,c),
(349,511,o),
(308,491,o),
(308,446,cs),
(308,436,o),
(310,424,o),
(314,414,cs),
(426,94,ls),
(457,6,o),
(491,-11,o),
(543,-11,cs)
);
},
{
closed = 1;
nodes = (
(292,-11,o),
(324,6,o),
(367,83,cs),
(424,184,o),
(457,275,o),
(457,371,cs),
(457,440,o),
(457,511,o),
(378,511,cs),
(337,511,o),
(306,446,o),
(308,436,cs),
(325,342,o),
(302,244,o),
(265,142,c),
(160,466,ls),
(151,493,o),
(130,511,o),
(97,511,c),
(61,511,o),
(20,491,o),
(20,446,cs),
(20,436,o),
(22,424,o),
(26,414,cs),
(138,94,ls),
(169,6,o),
(203,-11,o),
(255,-11,cs)
);
}
);
width = 775;
}
);
metricLeft = v;
unicode = 119;
},
{
color = 2;
glyphname = x;
lastChange = "2023-12-12 19:37:55 +0000";
layers = (
{
background = {
shapes = (
{
pos = (6,0);
ref = v;
}
);
};
layerId = "2F065738-4B59-43EB-A5F2-FD5F277958EA";
shapes = (
{
closed = 1;
nodes = (
(336,234,l),
(430,322,o),
(474,389,o),
(474,441,cs),
(474,488,o),
(436,511,o),
(396,511,cs),
(367,511,o),
(345,492,o),
(332,461,cs),
(313,417,o),
(278,359,o),
(234,319,c)
);
},
{
closed = 1;
nodes = (
(172,231,l),
(210,191,l),
(350,18,ls),
(362,4,o),
(383,-10,o),
(408,-10,cs),
(422,-10,o),
(437,-6,o),
(451,6,cs),
(471,24,o),
(479,44,o),
(479,62,cs),
(479,81,o),
(470,98,o),
(460,110,cs),
(326,277,l),
(283,323,l),
(158,483,ls),
(147,497,o),
(125,511,o),
(100,511,cs),
(86,511,o),
(71,507,o),
(57,495,cs),
(36,476,o),
(28,456,o),
(28,438,cs),
(28,420,o),
(38,403,o),
(48,390,cs)
);
},
{
closed = 1;
nodes = (
(172,270,l),
(81,189,o),
(25,108,o),
(25,56,cs),
(25,9,o),
(73,-10,o),
(105,-10,cs),
(134,-10,o),
(151,4,o),
(163,31,cs),
(187,84,o),
(232,155,o),
(264,181,c)
);
}
);
width = 504;
}
);
unicode = 120;
},
{
color = 6;
glyphname = y;
lastChange = "2023-12-13 19:10:35 +0000";
layers = (
{
layerId = "2F065738-4B59-43EB-A5F2-FD5F277958EA";
shapes = (
{
closed = 1;
nodes = (
(352,-230,o),
(450,-178,o),
(450,-60,cs),
(450,6,o),
(428,58,o),
(359,78,c),
(270,51,l),
(268,24,l),
(273,13,l),
(292,-1,o),
(306,-28,o),
(306,-50,cs),
(306,-99,o),
(260,-112,o),
(122,-112,cs),
(47,-112,o),
(20,-126,o),
(20,-167,cs),
(20,-214,o),
(48,-230,o),
(127,-230,cs)
);
},
{
closed = 1;
nodes = (
(385,-11,o),
(413,10,o),
(472,105,cs),
(535,206,o),
(564,275,o),
(564,371,cs),
(564,399,o),
(563,429,o),
(555,465,cs),
(549,491,o),
(526,511,o),
(485,511,cs),
(444,511,o),
(406,486,o),
(413,446,cs),
(417,422,o),
(419,407,o),
(420,375,cs),
(422,314,o),
(409,245,o),
(352,142,c),
(227,466,ls),
(217,493,o),
(197,511,o),
(164,511,cs),
(128,511,o),
(87,491,o),
(87,446,cs),
(87,436,o),
(89,424,o),
(93,414,cs),
(225,94,ls),
(260,8,o),
(290,-11,o),
(342,-11,cs)
);
}
);
width = 584;
}
);
metricLeft = v;
metricRight = v;
unicode = 121;
},
{
color = 6;
glyphname = z;
lastChange = "2023-12-09 13:38:31 +0000";
layers = (
{
layerId = "2F065738-4B59-43EB-A5F2-FD5F277958EA";
shapes = (
{
closed = 1;
nodes = (
(372,0,ls),
(418,0,o),
(439,19,o),
(439,59,cs),
(439,101,o),
(416,122,o),
(372,122,cs),
(206,122,ls),
(192,122,o),
(220,119,o),
(243,154,cs),
(361,331,l),
(359,329,o),
(434,425,o),
(434,460,cs),
(434,475,o),
(420,500,o),
(388,500,cs),
(98,500,ls),
(52,500,o),
(31,479,o),
(31,439,cs),
(31,397,o),
(54,378,o),
(98,378,cs),
(245,378,ls),
(247,378,o),
(234,379,o),
(212,344,cs),
(51,85,ls),
(34,57,o),
(34,50,o),
(34,43,cs),
(34,13,o),
(47,0,o),
(80,0,cs)
);
}
);
width = 472;
}
);
unicode = 122;
},
{
glyphname = zero;
lastChange = "2023-12-03 20:03:54 +0000";
layers = (
{
layerId = "2F065738-4B59-43EB-A5F2-FD5F277958EA";
shapes = (
{
closed = 1;
nodes = (
(453,-11,o),
(543,107,o),
(543,351,cs),
(543,594,o),
(454,711,o),
(304,711,cs),
(154,711,o),
(65,594,o),
(65,351,cs),
(65,107,o),
(155,-11,o),
(304,-11,cs)
);
},
{
closed = 1;
nodes = (
(215,526,o),
(244,579,o),
(304,579,cs),
(364,579,o),
(393,526,o),
(393,351,cs),
(393,175,o),
(364,121,o),
(304,121,cs),
(244,121,o),
(215,175,o),
(215,351,cs)
);
}
);
width = 600;
}
);
unicode = 48;
},
{
glyphname = one;
lastChange = "2023-12-09 14:01:56 +0000";
layers = (
{
layerId = "2F065738-4B59-43EB-A5F2-FD5F277958EA";
shapes = (
{
closed = 1;
nodes = (
(356,-11,o),
(377,10,o),
(377,56,cs),
(377,644,ls),
(377,690,o),
(353,711,o),
(304,711,cs),
(254,711,o),
(233,690,o),
(233,644,cs),
(233,56,ls),
(233,10,o),
(257,-11,o),
(307,-11,cs)
);
}
);
width = 427;
}
);
unicode = 49;
},
{
glyphname = two;
lastChange = "2023-12-12 19:00:39 +0000";
layers = (
{
layerId = "2F065738-4B59-43EB-A5F2-FD5F277958EA";
shapes = (
{
closed = 1;
nodes = (
(66,132,cs),
(66,78,ls),
(66,40,o),
(88,0,o),
(136,0,cs),
(450,0,ls),
(500,0,o),
(527,24,o),
(527,69,cs),
(527,114,o),
(499,139,o),
(450,139,cs),
(262,139,ls),
(239,139,o),
(213,128,o),
(197,109,c),
(204,119,o),
(211,135,o),
(210,148,cs),
(210,150,ls),
(210,194,o),
(230,213,o),
(314,237,cs),
(462,279,o),
(524,342,o),
(524,498,cs),
(524,633,o),
(425,711,o),
(265,711,cs),
(214,711,o),
(165,703,o),
(131,689,cs),
(103,678,o),
(89,660,o),
(89,632,cs),
(89,593,o),
(111,572,o),
(162,572,cs),
(196,572,o),
(236,579,o),
(273,579,cs),
(352,579,o),
(381,543,o),
(381,497,cs),
(381,402,o),
(347,386,o),
(236,353,cs),
(110,315,o),
(66,250,o)
);
},
{
closed = 1;
nodes = (
(66,132,cs),
(66,78,ls),
(66,40,o),
(88,0,o),
(136,0,cs),
(450,0,ls),
(500,0,o),
(527,24,o),
(527,69,cs),
(527,114,o),
(499,139,o),
(450,139,cs),
(262,139,ls),
(239,139,o),
(213,128,o),
(197,109,c),
(204,119,o),
(211,135,o),
(210,148,cs),
(210,150,ls),
(210,194,o),
(230,213,o),
(314,237,cs),
(462,279,o),
(524,342,o),
(524,498,cs),
(524,633,o),
(425,711,o),
(265,711,cs),
(214,711,o),
(165,703,o),
(131,689,cs),
(103,678,o),
(89,660,o),
(89,632,cs),
(89,593,o),
(111,572,o),
(162,572,cs),
(196,572,o),
(236,579,o),
(273,579,cs),
(352,579,o),
(381,543,o),
(381,497,cs),
(381,402,o),
(347,386,o),
(236,353,cs),
(110,315,o),
(66,250,o)
);
}
);
width = 600;
}
);
unicode = 50;
},
{
glyphname = three;
lastChange = "2023-12-12 19:00:29 +0000";
layers = (
{
layerId = "2F065738-4B59-43EB-A5F2-FD5F277958EA";
shapes = (
{
closed = 1;
nodes = (
(147,415,o),
(125,383,o),
(125,350,cs),
(125,318,o),
(147,285,o),
(192,285,cs),
(301,285,ls),
(347,285,o),
(390,272,o),
(390,193,cs),
(390,147,o),
(347,119,o),
(278,119,cs),
(238,119,o),
(197,127,o),
(161,127,cs),
(106,127,o),
(86,104,o),
(86,73,cs),
(86,43,o),
(98,24,o),
(128,12,cs),
(164,-3,o),
(215,-11,o),
(269,-11,cs),
(467,-11,o),
(535,99,o),
(535,200,cs),
(535,265,o),
(507,326,o),
(467,350,c),
(511,375,o),
(534,439,o),
(534,505,cs),
(534,641,o),
(426,713,o),
(269,711,cs),
(179,710,o),
(113,689,o),
(113,627,cs),
(113,592,o),
(136,573,o),
(191,573,cs),
(227,573,o),
(252,580,o),
(282,580,cs),
(351,580,o),
(390,553,o),
(390,505,cs),
(390,428,o),
(351,415,o),
(305,415,cs),
(192,415,ls)
);
}
);
width = 600;
}
);
unicode = 51;
},
{
glyphname = four;
lastChange = "2023-12-12 18:59:40 +0000";
layers = (
{
layerId = "2F065738-4B59-43EB-A5F2-FD5F277958EA";
shapes = (
{
closed = 1;
nodes = (
(26,258,l),
(26,206,o),
(50,180,o),
(98,180,cs),
(497,180,ls),
(547,180,o),
(574,204,o),
(574,249,cs),
(574,294,o),
(546,319,o),
(497,319,cs),
(226,319,ls),
(203,319,o),
(178,307,o),
(162,288,c),
(162,309,o),
(162,347,o),
(162,369,c)
);
},
{
closed = 1;
nodes = (
(447,-11,o),
(468,10,o),
(468,56,cs),
(468,398,ls),
(468,444,o),
(444,465,o),
(395,465,cs),
(345,465,o),
(324,444,o),
(324,398,cs),
(324,56,ls),
(324,10,o),
(348,-11,o),
(398,-11,cs)
);
},
{
closed = 1;
nodes = (
(141,180,o),
(145,202,o),
(162,247,cs),
(308,643,ls),
(325,688,o),
(284,710,o),
(235,710,cs),
(185,710,o),
(181,688,o),
(164,643,cs),
(18,247,ls),
(1,202,o),
(42,180,o),
(92,180,cs)
);
}
);
width = 600;
}
);
unicode = 52;
},
{
glyphname = five;
lastChange = "2023-12-12 18:59:56 +0000";
layers = (
{
layerId = "2F065738-4B59-43EB-A5F2-FD5F277958EA";
shapes = (
{
closed = 1;
nodes = (
(188,118,o),
(128,140,o),
(95,140,cs),
(46,140,o),
(24,116,o),
(24,70,cs),
(24,-6,o),
(162,-11,o),
(223,-11,cs),
(380,-11,o),
(488,67,o),
(488,207,cs),
(488,410,o),
(343,429,o),
(179,427,c),
(179,427,o),
(199,593,o),
(199,591,c),
(215,572,o),
(241,561,o),
(264,561,cs),
(389,561,ls),
(438,561,o),
(466,591,o),
(466,636,cs),
(466,681,o),
(439,700,o),
(389,700,cs),
(146,700,ls),
(98,700,o),
(82,657,o),
(76,605,cs),
(49,367,l),
(50,339,o),
(75,311,o),
(116,311,cs),
(225,311,ls),
(271,311,o),
(344,301,o),
(344,207,cs),
(344,145,o),
(295,118,o),
(226,118,cs)
);
}
);
width = 522;
}
);
unicode = 53;
},
{
glyphname = six;
lastChange = "2023-12-13 19:15:08 +0000";
layers = (
{
layerId = "2F065738-4B59-43EB-A5F2-FD5F277958EA";
shapes = (
{
closed = 1;
nodes = (
(282,119,o),
(250,170,o),
(250,250,cs),
(250,309,o),
(282,366,o),
(337,366,cs),
(392,366,o),
(424,309,o),
(424,250,cs),
(424,170,o),
(392,119,o),
(349,119,cs)
);
},
{
closed = 1;
nodes = (
(480,-11,o),
(568,88,o),
(568,250,cs),
(568,404,o),
(480,486,o),
(353,486,c),
(271,486,o),
(233,444,o),
(233,444,cs),
(252,572,o),
(304,581,o),
(433,581,c),
(477,581,o),
(499,598,o),
(499,643,c),
(499,694,o),
(470,711,o),
(385,711,c),
(164,711,o),
(89,577,o),
(89,347,cs),
(89,135,o),
(165,-11,o),
(349,-11,cs)
);
}
);
width = 600;
}
);
unicode = 54;
},
{
glyphname = seven;
lastChange = "2023-12-03 20:51:34 +0000";
layers = (
{
layerId = "2F065738-4B59-43EB-A5F2-FD5F277958EA";
shapes = (
{
closed = 1;
nodes = (
(104,711,ls),
(54,711,o),
(27,687,o),
(27,642,cs),
(27,597,o),
(55,572,o),
(104,572,cs),
(295,572,ls),
(318,572,o),
(343,584,o),
(359,603,c),
(359,603,o),
(334,544,o),
(325,522,c),
(143,78,ls),
(123,30,o),
(179,0,o),
(227,0,cs),
(275,0,o),
(279,29,o),
(299,78,cs),
(527,633,ls),
(545,677,o),
(514,711,o),
(455,711,cs)
);
}
);
width = 600;
}
);
unicode = 55;
},
{
glyphname = eight;
lastChange = "2023-12-13 19:12:35 +0000";
layers = (
{
layerId = "2F065738-4B59-43EB-A5F2-FD5F277958EA";
shapes = (
{
closed = 1;
nodes = (
(253,417,o),
(226,459,o),
(226,504,cs),
(226,546,o),
(255,591,o),
(307,591,cs),
(363,591,o),
(390,546,o),
(390,504,cs),
(390,459,o),
(364,417,o),
(314,417,cs)
);
},
{
closed = 1;
nodes = (
(62,56,o),
(174,-11,o),
(309,-11,cs),
(454,-11,o),
(553,56,o),
(553,192,cs),
(553,265,o),
(514,321,o),
(458,350,c),
(503,377,o),
(530,439,o),
(530,504,cs),
(530,604,o),
(468,711,o),
(309,711,cs),
(150,711,o),
(86,605,o),
(86,504,cs),
(86,440,o),
(114,378,o),
(161,350,c),
(106,321,o),
(62,265,o),
(62,192,cs)
);
},
{
closed = 1;
nodes = (
(360,111,o),
(310,111,cs),
(259,111,o),
(206,149,o),
(206,197,cs),
(206,252,o),
(245,297,o),
(307,297,cs),
(373,297,o),
(409,252,o),
(409,197,cs),
(409,147,o)
);
}
);
width = 600;
}
);
unicode = 56;
},
{
glyphname = nine;
lastChange = "2023-12-12 20:16:28 +0000";
layers = (
{
layerId = "2F065738-4B59-43EB-A5F2-FD5F277958EA";
shapes = (
{
closed = 1;
nodes = (
(376,581,o),
(408,530,o),
(408,450,cs),
(408,391,o),
(376,334,o),
(321,334,cs),
(266,334,o),
(234,391,o),
(234,450,cs),
(234,530,o),
(266,581,o),
(321,581,cs)
);
},
{
closed = 1;
nodes = (
(321,711,l),
(178,711,o),
(90,612,o),
(90,450,cs),
(90,296,o),
(178,214,o),
(305,214,c),
(387,214,o),
(425,256,o),
(425,256,cs),
(406,128,o),
(354,119,o),
(225,119,c),
(181,119,o),
(159,102,o),
(159,57,c),
(159,6,o),
(188,-11,o),
(273,-11,c),
(494,-11,o),
(569,123,o),
(569,353,cs),
(569,565,o),
(493,711,o),
(273,711,c)
);
}
);
width = 600;
}
);
unicode = 57;
},
{
color = 0;
glyphname = period;
lastChange = "2023-12-13 18:45:15 +0000";
layers = (
{
layerId = "2F065738-4B59-43EB-A5F2-FD5F277958EA";
shapes = (
{
closed = 1;
nodes = (
(169,-11,o),
(201,21,o),
(201,67,cs),
(201,114,o),
(169,146,o),
(122,146,cs),
(74,146,o),
(43,114,o),
(43,67,cs),
(43,21,o),
(74,-11,o),
(122,-11,cs)
);
}
);
width = 244;
}
);
metricRight = "=|";
unicode = 46;
},
{
glyphname = comma;
layers = (
{
layerId = "2F065738-4B59-43EB-A5F2-FD5F277958EA";
shapes = (
{
closed = 1;
nodes = (
(66,-230,ls),
(88,-230,o),
(100,-220,o),
(109,-203,cs),
(225,18,ls),
(229,25,o),
(230,31,o),
(230,37,cs),
(230,51,o),
(219,60,o),
(198,60,cs),
(119,60,ls),
(100,60,o),
(75,50,o),
(70,29,cs),
(13,-181,ls),
(11,-190,o),
(10,-193,o),
(10,-201,cs),
(10,-222,o),
(18,-230,o),
(42,-230,cs)
);
}
);
width = 375;
},
{
associatedMasterId = "2F065738-4B59-43EB-A5F2-FD5F277958EA";
layerId = "AF382407-ED47-4C2D-9EBF-2126331DCEC5";
name = "11 Dec 23, 17:56";
shapes = (
{
closed = 1;
nodes = (
(120,-229,ls),
(146,-229,o),
(162,-217,o),
(173,-196,cs),
(318,80,ls),
(323,89,o),
(325,96,o),
(325,103,cs),
(325,122,o),
(311,133,o),
(285,133,cs),
(229,133,o),
(140,148,o),
(125,94,cs),
(54,-168,ls),
(51,-179,o),
(50,-184,o),
(50,-193,cs),
(50,-220,o),
(59,-229,o),
(90,-229,cs)
);
}
);
width = 375;
}
);
unicode = 44;
},
{
glyphname = exclam;
layers = (
{
layerId = "2F065738-4B59-43EB-A5F2-FD5F277958EA";
shapes = (
{
closed = 1;
nodes = (
(174,209,o),
(194,235,o),
(194,277,cs),
(194,643,ls),
(194,685,o),
(174,711,o),
(122,711,cs),
(70,711,o),
(50,685,o),
(50,643,cs),
(50,277,ls),
(50,235,o),
(70,209,o),
(122,209,cs)
);
},
{
ref = period;
}
);
width = 246;
},
{
associatedMasterId = "2F065738-4B59-43EB-A5F2-FD5F277958EA";
layerId = "533EFD77-135B-4D0D-B9C9-49A30903D09C";
name = "11 Dec 23, 17:57";
shapes = (
{
closed = 1;
nodes = (
(174,189,o),
(194,215,o),
(194,257,cs),
(194,643,ls),
(194,685,o),
(174,711,o),
(122,711,cs),
(70,711,o),
(50,685,o),
(50,643,cs),
(50,257,ls),
(50,215,o),
(70,189,o),
(122,189,cs)
);
},
{
closed = 1;
nodes = (
(166,-11,o),
(196,20,o),
(196,61,cs),
(196,101,o),
(166,133,o),
(124,133,cs),
(83,133,o),
(52,101,o),
(52,61,cs),
(52,20,o),
(83,-11,o),
(124,-11,cs)
);
}
);
width = 246;
}
);
unicode = 33;
},
{
glyphname = question;
lastChange = "2023-12-13 18:50:44 +0000";
layers = (
{
layerId = "2F065738-4B59-43EB-A5F2-FD5F277958EA";
shapes = (
{
closed = 1;
nodes = (
(114,226,o),
(141,192,o),
(182,192,cs),
(230,192,o),
(258,228,o),
(258,250,c),
(258,271,ls),
(258,315,o),
(271,333,o),
(352,361,cs),
(462,399,o),
(520,431,o),
(520,533,cs),
(520,666,o),
(425,711,o),
(296,711,cs),
(237,711,o),
(188,703,o),
(154,689,cs),
(126,678,o),
(114,660,o),
(114,632,cs),
(114,593,o),
(134,575,o),
(185,575,cs),
(219,575,o),
(267,579,o),
(304,579,cs),
(357,579,o),
(386,561,o),
(386,533,cs),
(386,495,o),
(369,489,o),
(274,459,cs),
(165,425,o),
(114,354,o),
(114,250,cs)
);
},
{
pos = (64,0);
ref = period;
}
);
width = 600;
}
);
unicode = 63;
},
{
glyphname = periodcentered;
lastChange = "2023-12-12 20:25:06 +0000";
layers = (
{
layerId = "2F065738-4B59-43EB-A5F2-FD5F277958EA";
shapes = (
{
closed = 1;
nodes = (
(366,221,o),
(401,257,o),
(401,303,cs),
(401,350,o),
(366,385,o),
(319,385,cs),
(271,385,o),
(237,350,o),
(237,303,cs),
(237,257,o),
(271,221,o),
(319,221,cs)
);
}
);
width = 600;
}
);
unicode = 183;
},
{
glyphname = bullet;
lastChange = "2023-12-12 20:25:31 +0000";
layers = (
{
layerId = "2F065738-4B59-43EB-A5F2-FD5F277958EA";
shapes = (
{
closed = 1;
nodes = (
(389,180,o),
(442,234,o),
(442,303,cs),
(442,373,o),
(389,426,o),
(319,426,cs),
(247,426,o),
(196,373,o),
(196,303,cs),
(196,234,o),
(247,180,o),
(319,180,cs)
);
}
);
width = 600;
}
);
unicode = 8226;
},
{
glyphname = asterisk;
lastChange = "2023-12-13 18:56:50 +0000";
layers = (
{
layerId = "2F065738-4B59-43EB-A5F2-FD5F277958EA";
shapes = (
{
closed = 1;
nodes = (
(325,413,o),
(333,424,o),
(333,440,cs),
(333,684,ls),
(333,700,o),
(325,711,o),
(308,711,cs),
(291,711,o),
(283,700,o),
(283,684,cs),
(283,440,ls),
(283,424,o),
(291,413,o),
(308,413,cs)
);
},
{
closed = 1;
nodes = (
(215,445,o),
(228,447,o),
(239,458,cs),
(412,631,ls),
(423,642,o),
(425,655,o),
(413,667,cs),
(401,679,o),
(388,677,o),
(377,666,cs),
(204,493,ls),
(193,482,o),
(191,469,o),
(203,457,cs)
);
},
{
closed = 1;
nodes = (
(160,545,o),
(170,537,o),
(186,537,cs),
(430,537,ls),
(446,537,o),
(456,545,o),
(456,562,cs),
(456,579,o),
(446,587,o),
(430,587,cs),
(186,587,ls),
(170,587,o),
(160,579,o),
(160,562,cs)
);
},
{
closed = 1;
nodes = (
(191,655,o),
(193,642,o),
(204,631,cs),
(377,458,ls),
(388,447,o),
(401,445,o),
(413,457,cs),
(425,469,o),
(423,482,o),
(412,493,cs),
(239,666,ls),
(228,677,o),
(215,679,o),
(203,667,cs)
);
}
);
width = 600;
}
);
unicode = 42;
},
{
glyphname = numbersign;
lastChange = "2023-12-13 19:02:23 +0000";
layers = (
{
layerId = "2F065738-4B59-43EB-A5F2-FD5F277958EA";
shapes = (
{
closed = 1;
nodes = (
(130,-11,o),
(156,15,o),
(166,57,cs),
(214,252,o),
(262,448,o),
(306,628,cs),
(314,659,o),
(301,711,o),
(254,711,cs),
(202,711,o),
(176,685,o),
(166,643,cs),
(22,57,ls),
(12,15,o),
(52,-11,o),
(78,-11,cs)
);
},
{
closed = 1;
nodes = (
(462,-11,o),
(488,15,o),
(498,57,cs),
(546,252,o),
(594,448,o),
(638,628,cs),
(646,659,o),
(633,711,o),
(586,711,cs),
(534,711,o),
(508,685,o),
(498,643,cs),
(354,57,ls),
(344,15,o),
(384,-11,o),
(410,-11,cs)
);
},
{
closed = 1;
nodes = (
(14,442,o),
(40,422,o),
(82,422,cs),
(635,422,ls),
(677,422,o),
(703,442,o),
(703,494,cs),
(703,546,o),
(677,566,o),
(635,566,cs),
(82,566,ls),
(40,566,o),
(14,546,o),
(14,494,cs)
);
},
{
closed = 1;
nodes = (
(-22,164,o),
(4,144,o),
(46,144,cs),
(599,144,ls),
(641,144,o),
(667,164,o),
(667,216,cs),
(667,268,o),
(641,288,o),
(599,288,cs),
(46,288,ls),
(4,288,o),
(-22,268,o),
(-22,216,cs)
);
}
);
width = 660;
}
);
unicode = 35;
},
{
glyphname = slash;
lastChange = "2023-12-13 19:04:37 +0000";
layers = (
{
layerId = "2F065738-4B59-43EB-A5F2-FD5F277958EA";
shapes = (
{
closed = 1;
nodes = (
(160,-158,o),
(186,-132,o),
(196,-90,cs),
(244,105,o),
(332,448,o),
(373,628,cs),
(380,659,o),
(366,711,o),
(319,711,cs),
(267,711,o),
(242,685,o),
(232,643,cs),
(52,-90,ls),
(42,-132,o),
(82,-158,o),
(108,-158,cs)
);
}
);
width = 425;
}
);
unicode = 47;
},
{
glyphname = backslash;
lastChange = "2023-12-13 19:04:44 +0000";
layers = (
{
layerId = "2F065738-4B59-43EB-A5F2-FD5F277958EA";
shapes = (
{
closed = 1;
nodes = (
(343,-158,o),
(383,-132,o),
(373,-90,cs),
(193,643,ls),
(183,685,o),
(158,711,o),
(106,711,cs),
(59,711,o),
(45,659,o),
(52,628,cs),
(93,448,o),
(181,105,o),
(229,-90,cs),
(239,-132,o),
(265,-158,o),
(317,-158,cs)
);
}
);
width = 425;
}
);
unicode = 92;
},
{
glyphname = hyphen;
lastChange = "2023-12-13 19:05:42 +0000";
layers = (
{
layerId = "2F065738-4B59-43EB-A5F2-FD5F277958EA";
shapes = (
{
closed = 1;
nodes = (
(50,236,o),
(76,216,o),
(118,216,cs),
(376,216,ls),
(418,216,o),
(444,236,o),
(444,288,cs),
(444,340,o),
(418,360,o),
(376,360,cs),
(118,360,ls),
(76,360,o),
(50,340,o),
(50,288,cs)
);
}
);
width = 494;
}
);
unicode = 45;
},
{
glyphname = endash;
lastChange = "2023-12-13 19:06:00 +0000";
layers = (
{
layerId = "2F065738-4B59-43EB-A5F2-FD5F277958EA";
shapes = (
{
closed = 1;
nodes = (
(50,236,o),
(76,216,o),
(118,216,cs),
(481,216,ls),
(523,216,o),
(549,236,o),
(549,288,cs),
(549,340,o),
(523,360,o),
(481,360,cs),
(118,360,ls),
(76,360,o),
(50,340,o),
(50,288,cs)
);
}
);
width = 599;
}
);
unicode = 8211;
},
{
glyphname = emdash;
lastChange = "2023-12-13 19:06:29 +0000";
layers = (
{
layerId = "2F065738-4B59-43EB-A5F2-FD5F277958EA";
shapes = (
{
closed = 1;
nodes = (
(50,236,o),
(76,216,o),
(118,216,c),
(856,216,ls),
(898,216,o),
(924,236,o),
(924,288,cs),
(924,340,o),
(898,360,o),
(856,360,cs),
(118,360,l),
(76,360,o),
(50,340,o),
(50,288,c)
);
}
);
width = 974;
}
);
unicode = 8212;
},
{
glyphname = underscore;
lastChange = "2023-12-13 19:06:46 +0000";
layers = (
{
layerId = "2F065738-4B59-43EB-A5F2-FD5F277958EA";
shapes = (
{
closed = 1;
nodes = (
(50,20,o),
(76,0,o),
(118,0,cs),
(481,0,ls),
(523,0,o),
(549,20,o),
(549,72,cs),
(549,124,o),
(523,144,o),
(481,144,cs),
(118,144,ls),
(76,144,o),
(50,124,o),
(50,72,cs)
);
}
);
width = 600;
}
);
unicode = 95;
},
{
glyphname = dieresiscomb;
lastChange = "2023-11-29 19:20:39 +0000";
layers = (
{
anchors = (
{
name = _top;
pos = (0,480);
},
{
name = top;
}
);
layerId = "2F065738-4B59-43EB-A5F2-FD5F277958EA";
shapes = (
{
closed = 1;
nodes = (
(1436,-14,o),
(1482,11,o),
(1517,78,c),
(1552,11,o),
(1598,-14,o),
(1686,-14,cs),
(1827,-14,o),
(1887,52,o),
(1887,209,cs),
(1887,440,ls),
(1887,486,o),
(1863,508,o),
(1815,508,cs),
(1767,508,o),
(1743,486,o),
(1743,440,cs),
(1743,215,ls),
(1743,136,o),
(1723,106,o),
(1671,106,cs),
(1614,106,o),
(1589,142,o),
(1589,225,cs),
(1589,440,ls),
(1589,486,o),
(1565,508,o),
(1517,508,cs),
(1469,508,o),
(1445,486,o),
(1445,440,cs),
(1445,225,ls),
(1445,142,o),
(1420,106,o),
(1363,106,cs),
(1311,106,o),
(1291,136,o),
(1291,215,cs),
(1291,440,ls),
(1291,486,o),
(1267,508,o),
(1219,508,cs),
(1171,508,o),
(1147,486,o),
(1147,440,cs),
(1147,209,ls),
(1147,52,o),
(1207,-14,o),
(1348,-14,cs)
);
}
);
width = 300;
}
);
unicode = 776;
},
{
glyphname = acutecomb;
lastChange = "2023-12-11 13:15:30 +0000";
layers = (
{
anchors = (
{
name = _top;
pos = (124,500);
},
{
name = top;
pos = (124,685);
}
);
layerId = "2F065738-4B59-43EB-A5F2-FD5F277958EA";
shapes = (
{
closed = 1;
nodes = (
(210,599,ls),
(238,610,o),
(252,631,o),
(245,654,cs),
(236,686,o),
(208,696,o),
(175,680,cs),
(40,615,ls),
(15,604,o),
(5,586,o),
(13,566,cs),
(19,547,o),
(36,541,o),
(60,548,cs)
);
}
);
width = 287;
}
);
unicode = 769;
},
{
glyphname = macroncomb;
lastChange = "2023-11-29 19:20:39 +0000";
layers = (
{
anchors = (
{
name = _top;
pos = (206,687);
},
{
name = top;
pos = (206,791);
}
);
hints = (
{
horizontal = 1;
place = (710,81);
type = Stem;
},
{
place = (50,312);
type = Stem;
}
);
layerId = "2F065738-4B59-43EB-A5F2-FD5F277958EA";
shapes = (
{
closed = 1;
nodes = (
(317,710,ls),
(340,710,o),
(362,726,o),
(362,750,cs),
(362,774,o),
(340,791,o),
(317,791,cs),
(95,791,ls),
(72,791,o),
(50,774,o),
(50,750,cs),
(50,726,o),
(72,710,o),
(95,710,cs)
);
}
);
width = 412;
}
);
unicode = 772;
},
{
glyphname = tilde;
lastChange = "2023-12-11 13:55:50 +0000";
layers = (
{
hints = (
{
horizontal = 1;
place = (600,121);
type = Stem;
},
{
horizontal = 1;
place = (551,72);
type = Stem;
},
{
place = (50,290);
type = Stem;
}
);
layerId = "2F065738-4B59-43EB-A5F2-FD5F277958EA";
shapes = (
{
closed = 1;
nodes = (
(295,551,o),
(340,586,o),
(340,630,cs),
(340,659,o),
(320,672,o),
(293,672,cs),
(245,672,o),
(258,623,o),
(245,623,cs),
(241,623,o),
(240,634,o),
(240,636,cs),
(240,648,o),
(238,665,o),
(228,681,cs),
(210,710,o),
(175,721,o),
(146,721,cs),
(91,721,o),
(50,683,o),
(50,642,cs),
(50,613,o),
(70,600,o),
(97,600,cs),
(144,600,o),
(145,638,o),
(145,649,cs),
(145,650,ls),
(145,654,o),
(150,639,o),
(150,636,cs),
(150,625,o),
(152,609,o),
(161,594,cs),
(179,563,o),
(215,551,o),
(245,551,cs)
);
}
);
width = 390;
}
);
note = tilde;
unicode = 732;
},
{
glyphname = macron;
lastChange = "2023-12-11 13:56:07 +0000";
layers = (
{
hints = (
{
horizontal = 1;
place = (710,81);
type = Stem;
},
{
place = (50,312);
type = Stem;
}
);
layerId = "2F065738-4B59-43EB-A5F2-FD5F277958EA";
shapes = (
{
closed = 1;
nodes = (
(317,681,ls),
(340,681,o),
(362,697,o),
(362,721,cs),
(362,745,o),
(340,762,o),
(317,762,cs),
(95,762,ls),
(72,762,o),
(50,745,o),
(50,721,cs),
(50,697,o),
(72,681,o),
(95,681,cs)
);
}
);
width = 412;
}
);
note = macron;
unicode = 175;
},
{
glyphname = ellipisis;
lastChange = "2023-12-05 22:06:37 +0000";
layers = (
{
layerId = "2F065738-4B59-43EB-A5F2-FD5F277958EA";
shapes = (
{
closed = 1;
nodes = (
(126,-11,o),
(157,20,o),
(157,60,cs),
(157,101,o),
(126,133,o),
(85,133,cs),
(43,133,o),
(13,101,o),
(13,60,cs),
(13,20,o),
(43,-11,o),
(85,-11,cs)
);
}
